<svg xmlns="http://www.w3.org/2000/svg" xmlns:xlink="http://www.w3.org/1999/xlink" width="720" height="450.78"><rect width="720" height="450.78" rx="5" ry="5" class="a"/><svg y="0%" x="0%"><circle cx="20" cy="20" r="6" fill="#ff5f58"/><circle cx="40" cy="20" r="6" fill="#ffbd2e"/><circle cx="60" cy="20" r="6" fill="#18c132"/></svg><svg height="390.78" viewBox="0 0 68 39.078" width="680" x="15" xmlns="http://www.w3.org/2000/svg" xmlns:xlink="http://www.w3.org/1999/xlink" y="50"><style>@keyframes o{0%{transform:translateX(0)}.1%{transform:translateX(-68px)}1.4%{transform:translateX(-136px)}1.6%{transform:translateX(-204px)}1.7%{transform:translateX(-340px)}4.2%{transform:translateX(-408px)}7.4%{transform:translateX(-476px)}11.6%{transform:translateX(-544px)}13.9%{transform:translateX(-612px)}16.3%{transform:translateX(-680px)}17.2%{transform:translateX(-748px)}21%{transform:translateX(-816px)}21.1%{transform:translateX(-884px)}33.4%{transform:translateX(-952px)}37.4%{transform:translateX(-1020px)}38.2%{transform:translateX(-1088px)}40.7%{transform:translateX(-1156px)}53.7%{transform:translateX(-1292px)}67.1%{transform:translateX(-1360px)}68.4%{transform:translateX(-1428px)}80.5%{transform:translateX(-1496px)}83.2%{transform:translateX(-1564px)}85.9%{transform:translateX(-1632px)}96.8%{transform:translateX(-1768px)}96.9%{transform:translateX(-1836px)}97.4%{transform:translateX(-1972px)}to{transform:translateX(-2040px)}}.a{fill:#282d35}.f{white-space:pre}.f,.g{fill:#303030}.h{fill:#0087af}.h,.i,.j,.k,.l{white-space:pre}.i{fill:#00afff;font-weight:700}.j,.k,.l{fill:#a8cc8c}.k,.l{fill:#b9c0cb}.l{fill:#e88388;font-weight:700}</style><g font-family="Monaco,Consolas,Menlo,'Bitstream Vera Sans Mono','Powerline Symbols',monospace" font-size="1.67"><defs><symbol id="1"><text y="1.67" class="f"></text><path class="g" d="M1.002 0h1v2.171h-1z"/><text x="1.002" y="1.67" class="h"/><path class="g" d="M2.004 0h1v2.171h-1z"/><text x="2.004" y="1.67" class="i">~</text><path class="g" d="M3.006 0h1v2.171h-1z"/><text x="3.006" y="1.67" class="h"/><text x="4.008" y="1.67" class="f"></text></symbol><symbol id="2"><text y="1.67" class="f"></text><path class="g" d="M1.002 0h1v2.171h-1z"/><text x="1.002" y="1.67" class="h"/><path class="g" d="M2.004 0h1v2.171h-1z"/><text x="2.004" y="1.67" class="i">~</text><path class="g" d="M3.006 0h1v2.171h-1z"/><text x="3.006" y="1.67" class="h"/><text x="4.008" y="1.67" class="f"></text><text x="6.012" y="1.67" class="j">kill</text></symbol><symbol id="3"><text y="1.67" class="f"></text><path class="g" d="M1.002 0h1v2.171h-1z"/><text x="1.002" y="1.67" class="h"/><path class="g" d="M2.004 0h1v2.171h-1z"/><text x="2.004" y="1.67" class="i">~</text><path class="g" d="M3.006 0h1v2.171h-1z"/><text x="3.006" y="1.67" class="h"/><text x="4.008" y="1.67" class="f"></text><text x="6.012" y="1.67" class="j">kill</text><text x="11.022" y="1.67" class="k">-</text></symbol><symbol id="4"><text y="1.67" class="k">Completing</text><text x="11.022" y="1.67" class="k">signal</text></symbol><symbol id="5"><text y="1.67" class="k">-ALRM</text><text x="9.018" y="1.67" class="k">-HUP</text><text x="18.036" y="1.67" class="k">-PIPE</text><text x="27.054" y="1.67" class="k">-SEGV</text><text x="36.072" y="1.67" class="k">-TRAP</text><text x="45.09" y="1.67" class="k">-USR1</text><text x="54.108" y="1.67" class="k">-XFSZ</text></symbol><symbol id="6"><text y="1.67" class="k">-BUS</text><text x="9.018" y="1.67" class="k">-ILL</text><text x="18.036" y="1.67" class="k">-POLL</text><text x="27.054" y="1.67" class="k">-STKFLT</text><text x="36.072" y="1.67" class="k">-TSTP</text><text x="45.09" y="1.67" class="k">-USR2</text></symbol><symbol id="7"><text y="1.67" class="k">-CHLD</text><text x="9.018" y="1.67" class="k">-INT</text><text x="18.036" y="1.67" class="k">-PROF</text><text x="27.054" y="1.67" class="k">-STOP</text><text x="36.072" y="1.67" class="k">-TTIN</text><text x="45.09" y="1.67" class="k">-VTALRM</text></symbol><symbol id="8"><text y="1.67" class="k">-CONT</text><text x="9.018" y="1.67" class="k">-IOT</text><text x="18.036" y="1.67" class="k">-PWR</text><text x="27.054" y="1.67" class="k">-SYS</text><text x="36.072" y="1.67" class="k">-TTOU</text><text x="45.09" y="1.67" class="k">-WINCH</text></symbol><symbol id="9"><text y="1.67" class="k">-FPE</text><text x="9.018" y="1.67" class="k">-KILL</text><text x="18.036" y="1.67" class="k">-QUIT</text><text x="27.054" y="1.67" class="k">-TERM</text><text x="36.072" y="1.67" class="k">-URG</text><text x="45.09" y="1.67" class="k">-XCPU</text></symbol><symbol id="10"><text y="1.67" class="k">Completing</text><text x="11.022" y="1.67" class="k">option</text></symbol><symbol id="11"><text y="1.67" class="k">-l</text><text x="4.008" y="1.67" class="k">--</text><text x="7.014" y="1.67" class="k">list</text><text x="12.024" y="1.67" class="k">signal</text><text x="19.038" y="1.67" class="k">names</text><text x="25.05" y="1.67" class="k">or</text><text x="28.056" y="1.67" class="k">numbers</text><text x="36.072" y="1.67" class="k">of</text><text x="39.078" y="1.67" class="k">specified</text><text x="49.098" y="1.67" class="k">signals</text></symbol><symbol id="12"><text y="1.67" class="k">-n</text><text x="4.008" y="1.67" class="k">--</text><text x="7.014" y="1.67" class="k">specify</text><text x="15.03" y="1.67" class="k">signal</text><text x="22.044" y="1.67" class="k">number</text></symbol><symbol id="13"><text y="1.67" class="k">-s</text><text x="4.008" y="1.67" class="k">--</text><text x="7.014" y="1.67" class="k">specify</text><text x="15.03" y="1.67" class="k">signal</text><text x="22.044" y="1.67" class="k">name</text></symbol><symbol id="14"><text y="1.67" class="f"></text><path class="g" d="M1.002 0h1v2.171h-1z"/><text x="1.002" y="1.67" class="h"/><path class="g" d="M2.004 0h1v2.171h-1z"/><text x="2.004" y="1.67" class="i">~</text><path class="g" d="M3.006 0h1v2.171h-1z"/><text x="3.006" y="1.67" class="h"/><text x="4.008" y="1.67" class="f"></text><text x="6.012" y="1.67" class="j">kill</text><text x="11.022" y="1.67" class="k">-HUP</text></symbol><symbol id="15"><text y="1.67" class="k">Completing</text><text x="11.022" y="1.67" class="k">process</text><text x="19.038" y="1.67" class="k">ID</text></symbol><symbol id="16"><text x="2.004" y="1.67" class="l">94689</text><text x="9.018" y="1.67" class="k">1.0</text><text x="13.026" y="1.67" class="k">pts/1</text><text x="22.044" y="1.67" class="k">00:00:01</text><text x="31.062" y="1.67" class="k">-zsh</text></symbol><symbol id="17"><text x="2.004" y="1.67" class="l">94692</text><text x="9.018" y="1.67" class="k">0.0</text><text x="13.026" y="1.67" class="k">pts/1</text><text x="22.044" y="1.67" class="k">00:00:00</text><text x="31.062" y="1.67" class="k">-zsh</text></symbol><symbol id="18"><text x="2.004" y="1.67" class="l">94706</text><text x="9.018" y="1.67" class="k">0.0</text><text x="13.026" y="1.67" class="k">pts/1</text><text x="22.044" y="1.67" class="k">00:00:00</text><text x="31.062" y="1.67" class="k">/home/test/.cache/gitstatus/gitstatu</text></symbol><symbol id="19"><text x="2.004" y="1.67" class="l">96436</text><text x="9.018" y="1.67" class="k">2.8</text><text x="13.026" y="1.67" class="k">pts/1</text><text x="22.044" y="1.67" class="k">00:00:00</text><text x="31.062" y="1.67" class="k">/usr/bin/python3</text><text x="48.096" y="1.67" class="k">/usr/bin/asciinema</text></symbol><symbol id="20"><text x="2.004" y="1.67" class="l">96437</text><text x="9.018" y="1.67" class="k">0.0</text><text x="13.026" y="1.67" class="k">pts/1</text><text x="22.044" y="1.67" class="k">00:00:00</text><text x="31.062" y="1.67" class="k">/usr/bin/python3</text><text x="48.096" y="1.67" class="k">/usr/bin/asciinema</text></symbol><symbol id="21"><text x="2.004" y="1.67" class="l">96438</text><text x="9.018" y="1.67" class="k">0.4</text><text x="13.026" y="1.67" class="k">pts/1</text><text x="22.044" y="1.67" class="k">00:00:00</text><text x="31.062" y="1.67" class="k">/usr/bin/python3</text><text x="48.096" y="1.67" class="k">/usr/bin/asciinema</text></symbol><symbol id="22"><text x="2.004" y="1.67" class="l">96439</text><text x="9.018" y="1.67" class="k">0.0</text><text x="13.026" y="1.67" class="k">pts/2</text><text x="22.044" y="1.67" class="k">00:00:00</text><text x="31.062" y="1.67" class="k">sh</text><text x="34.068" y="1.67" class="k">-c</text><text x="37.074" y="1.67" class="k">/usr/bin/zsh</text></symbol><symbol id="23"><text x="2.004" y="1.67" class="l">96440</text><text x="9.018" y="1.67" class="k">9.2</text><text x="13.026" y="1.67" class="k">pts/2</text><text x="22.044" y="1.67" class="k">00:00:00</text><text x="31.062" y="1.67" class="k">/usr/bin/zsh</text></symbol><symbol id="24"><text x="2.004" y="1.67" class="l">96444</text><text x="9.018" y="1.67" class="k">0.0</text><text x="13.026" y="1.67" class="k">pts/2</text><text x="22.044" y="1.67" class="k">00:00:00</text><text x="31.062" y="1.67" class="k">/usr/bin/zsh</text></symbol><symbol id="25"><text x="2.004" y="1.67" class="l">96445</text><text x="9.018" y="1.67" class="k">0.0</text><text x="13.026" y="1.67" class="k">pts/2</text><text x="22.044" y="1.67" class="k">00:00:00</text><text x="31.062" y="1.67" class="k">/usr/bin/zsh</text></symbol><symbol id="26"><text x="2.004" y="1.67" class="l">96458</text><text x="9.018" y="1.67" class="k">0.0</text><text x="13.026" y="1.67" class="k">pts/2</text><text x="22.044" y="1.67" class="k">00:00:00</text><text x="31.062" y="1.67" class="k">/home/test/.cache/gitstatus/gitstatu</text></symbol><symbol id="27"><text x="2.004" y="1.67" class="l">96491</text><text x="9.018" y="1.67" class="k">0.0</text><text x="13.026" y="1.67" class="k">pts/2</text><text x="22.044" y="1.67" class="k">00:00:00</text><text x="31.062" y="1.67" class="k">sleep</text><text x="37.074" y="1.67" class="k">5</text></symbol><symbol id="28"><text x="2.004" y="1.67" class="l">96531</text><text x="9.018" y="1.67" class="k">0.0</text><text x="13.026" y="1.67" class="k">pts/2</text><text x="22.044" y="1.67" class="k">00:00:00</text><text x="31.062" y="1.67" class="k">/usr/bin/zsh</text></symbol><symbol id="29"><text x="2.004" y="1.67" class="l">96534</text><text x="9.018" y="1.67" class="k">0.0</text><text x="13.026" y="1.67" class="k">pts/2</text><text x="22.044" y="1.67" class="k">00:00:00</text><text x="31.062" y="1.67" class="k">ps</text><text x="34.068" y="1.67" class="k">-u</text><text x="37.074" y="1.67" class="k">test</text><text x="42.084" y="1.67" class="k">-o</text><text x="45.09" y="1.67" class="k">pid,%cpu,tty,cputime,c</text></symbol><symbol id="30"><text y="1.67" class="k">Completing</text><text x="11.022" y="1.67" class="k">process-group</text></symbol><symbol id="31"><text y="1.67" class="k">0</text></symbol><symbol id="32"><text y="1.67" style="white-space:pre" fill="#5fd700">❯</text><text x="2.004" y="1.67" class="j">kill</text><text x="7.014" y="1.67" class="k">-HUP</text><text x="12.024" y="1.67" class="k">95033</text></symbol><symbol id="a"><path fill="transparent" d="M0 0h68v18H0z"/></symbol></defs><path class="a" d="M0 0h68v39.078H0z"/><g style="animation-duration:4.461851s;animation-iteration-count:infinite;animation-name:o;animation-timing-function:steps(1,end)"><svg width="2108"><svg><use xlink:href="#a"/></svg><svg x="68"><use xlink:href="#a"/><use xlink:href="#1"/></svg><svg x="136"><use xlink:href="#a"/></svg><svg x="204"><use xlink:href="#a"/><use xlink:href="#1"/></svg><svg x="272"><use xlink:href="#a"/><use xlink:href="#1"/></svg><svg x="340"><use xlink:href="#a"/><use xlink:href="#1"/></svg><svg x="408"><use xlink:href="#a"/><text y="1.67" class="f"></text><path class="g" d="M1.002 0h1v2.171h-1z"/><text x="1.002" y="1.67" class="h"/><path class="g" d="M2.004 0h1v2.171h-1z"/><text x="2.004" y="1.67" class="i">~</text><path class="g" d="M3.006 0h1v2.171h-1z"/><text x="3.006" y="1.67" class="h"/><text x="4.008" y="1.67" class="f"></text><text x="6.012" y="1.67" class="l">k</text></svg><svg x="476"><use xlink:href="#a"/><text y="1.67" class="f"></text><path class="g" d="M1.002 0h1v2.171h-1z"/><text x="1.002" y="1.67" class="h"/><path class="g" d="M2.004 0h1v2.171h-1z"/><text x="2.004" y="1.67" class="i">~</text><path class="g" d="M3.006 0h1v2.171h-1z"/><text x="3.006" y="1.67" class="h"/><text x="4.008" y="1.67" class="f"></text><text x="6.012" y="1.67" class="l">ki</text></svg><svg x="544"><use xlink:href="#a"/><text y="1.67" class="f"></text><path class="g" d="M1.002 0h1v2.171h-1z"/><text x="1.002" y="1.67" class="h"/><path class="g" d="M2.004 0h1v2.171h-1z"/><text x="2.004" y="1.67" class="i">~</text><path class="g" d="M3.006 0h1v2.171h-1z"/><text x="3.006" y="1.67" class="h"/><text x="4.008" y="1.67" class="f"></text><text x="6.012" y="1.67" class="l">kil</text></svg><svg x="612"><use xlink:href="#a"/><use xlink:href="#2"/></svg><svg x="680"><use xlink:href="#a"/><use xlink:href="#2"/></svg><svg x="748"><use xlink:href="#a"/><use xlink:href="#3"/></svg><svg x="816"><use xlink:href="#a"/><use xlink:href="#3"/><use xlink:href="#4" y="2.171"/><use xlink:href="#5" y="4.342"/><use xlink:href="#6" y="6.513"/><use xlink:href="#7" y="8.684"/><use xlink:href="#8" y="10.855"/><use xlink:href="#9" y="13.026"/><use xlink:href="#10" y="15.197"/><use xlink:href="#11" y="17.368"/><use xlink:href="#12" y="19.539"/><use xlink:href="#13" y="21.71"/></svg><svg x="884"><use xlink:href="#a"/><use xlink:href="#3"/><use xlink:href="#4" y="2.171"/><use xlink:href="#5" y="4.342"/><use xlink:href="#6" y="6.513"/><use xlink:href="#7" y="8.684"/><use xlink:href="#8" y="10.855"/><use xlink:href="#9" y="13.026"/><use xlink:href="#10" y="15.197"/><use xlink:href="#11" y="17.368"/><use xlink:href="#12" y="19.539"/><use xlink:href="#13" y="21.71"/></svg><svg x="952"><use xlink:href="#a"/><text y="1.67" class="f"></text><path class="g" d="M1.002 0h1v2.171h-1z"/><text x="1.002" y="1.67" class="h"/><path class="g" d="M2.004 0h1v2.171h-1z"/><text x="2.004" y="1.67" class="i">~</text><path class="g" d="M3.006 0h1v2.171h-1z"/><text x="3.006" y="1.67" class="h"/><text x="4.008" y="1.67" class="f"></text><text x="6.012" y="1.67" class="j">kill</text><text x="11.022" y="1.67" class="k">-H</text><use xlink:href="#4" y="2.171"/><use xlink:href="#5" y="4.342"/><use xlink:href="#6" y="6.513"/><use xlink:href="#7" y="8.684"/><use xlink:href="#8" y="10.855"/><use xlink:href="#9" y="13.026"/><use xlink:href="#10" y="15.197"/><use xlink:href="#11" y="17.368"/><use xlink:href="#12" y="19.539"/><use xlink:href="#13" y="21.71"/></svg><svg x="1020"><use xlink:href="#a"/><text y="1.67" class="f"></text><path class="g" d="M1.002 0h1v2.171h-1z"/><text x="1.002" y="1.67" class="h"/><path class="g" d="M2.004 0h1v2.171h-1z"/><text x="2.004" y="1.67" class="i">~</text><path class="g" d="M3.006 0h1v2.171h-1z"/><text x="3.006" y="1.67" class="h"/><text x="4.008" y="1.67" class="f"></text><text x="6.012" y="1.67" class="j">kill</text><text x="11.022" y="1.67" class="k">-HU</text><use xlink:href="#4" y="2.171"/><use xlink:href="#5" y="4.342"/><use xlink:href="#6" y="6.513"/><use xlink:href="#7" y="8.684"/><use xlink:href="#8" y="10.855"/><use xlink:href="#9" y="13.026"/><use xlink:href="#10" y="15.197"/><use xlink:href="#11" y="17.368"/><use xlink:href="#12" y="19.539"/><use xlink:href="#13" y="21.71"/></svg><svg x="1088"><use xlink:href="#a"/><use xlink:href="#14"/><use xlink:href="#4" y="2.171"/><use xlink:href="#5" y="4.342"/><use xlink:href="#6" y="6.513"/><use xlink:href="#7" y="8.684"/><use xlink:href="#8" y="10.855"/><use xlink:href="#9" y="13.026"/><use xlink:href="#10" y="15.197"/><use xlink:href="#11" y="17.368"/><use xlink:href="#12" y="19.539"/><use xlink:href="#13" y="21.71"/></svg><svg x="1156"><use xlink:href="#a"/><use xlink:href="#14"/><use xlink:href="#4" y="2.171"/><use xlink:href="#5" y="4.342"/><use xlink:href="#6" y="6.513"/><use xlink:href="#7" y="8.684"/><use xlink:href="#8" y="10.855"/><use xlink:href="#9" y="13.026"/><use xlink:href="#10" y="15.197"/><use xlink:href="#11" y="17.368"/><use xlink:href="#12" y="19.539"/><use xlink:href="#13" y="21.71"/></svg><svg x="1224"><use xlink:href="#a"/><use xlink:href="#14"/><use xlink:href="#15" y="2.171"/><use xlink:href="#16" y="4.342"/><use xlink:href="#17" y="6.513"/><use xlink:href="#18" y="8.684"/><use xlink:href="#19" y="10.855"/><use xlink:href="#20" y="13.026"/><use xlink:href="#21" y="15.197"/><use xlink:href="#22" y="17.368"/><use xlink:href="#23" y="19.539"/><use xlink:href="#24" y="21.71"/><use xlink:href="#25" y="23.881"/><use xlink:href="#26" y="26.052"/><use xlink:href="#27" y="28.223"/><text x="2.004" y="32.064" class="l">96531</text></svg><svg x="1292"><use xlink:href="#a"/><use xlink:href="#14"/><use xlink:href="#15" y="2.171"/><use xlink:href="#16" y="4.342"/><use xlink:href="#17" y="6.513"/><use xlink:href="#18" y="8.684"/><use xlink:href="#19" y="10.855"/><use xlink:href="#20" y="13.026"/><use xlink:href="#21" y="15.197"/><use xlink:href="#22" y="17.368"/><use xlink:href="#23" y="19.539"/><use xlink:href="#24" y="21.71"/><use xlink:href="#25" y="23.881"/><use xlink:href="#26" y="26.052"/><use xlink:href="#27" y="28.223"/><use xlink:href="#28" y="30.394"/><use xlink:href="#29" y="32.565"/><use xlink:href="#30" y="34.736"/><use xlink:href="#31" y="36.907"/></svg><svg x="1360"><use xlink:href="#a"/><text y="1.67" class="f"></text><path class="g" d="M1.002 0h1v2.171h-1z"/><text x="1.002" y="1.67" class="h"/><path class="g" d="M2.004 0h1v2.171h-1z"/><text x="2.004" y="1.67" class="i">~</text><path class="g" d="M3.006 0h1v2.171h-1z"/><text x="3.006" y="1.67" class="h"/><text x="4.008" y="1.67" class="f"></text><text x="6.012" y="1.67" class="j">kill</text><text x="11.022" y="1.67" class="k">-HUP</text><text x="16.032" y="1.67" class="k">9</text><use xlink:href="#15" y="2.171"/><use xlink:href="#16" y="4.342"/><use xlink:href="#17" y="6.513"/><use xlink:href="#18" y="8.684"/><use xlink:href="#19" y="10.855"/><use xlink:href="#20" y="13.026"/><use xlink:href="#21" y="15.197"/><use xlink:href="#22" y="17.368"/><use xlink:href="#23" y="19.539"/><use xlink:href="#24" y="21.71"/><use xlink:href="#25" y="23.881"/><use xlink:href="#26" y="26.052"/><use xlink:href="#27" y="28.223"/><use xlink:href="#28" y="30.394"/><use xlink:href="#29" y="32.565"/><use xlink:href="#30" y="34.736"/><use xlink:href="#31" y="36.907"/></svg><svg x="1428"><use xlink:href="#a"/><text y="1.67" class="f"></text><path class="g" d="M1.002 0h1v2.171h-1z"/><text x="1.002" y="1.67" class="h"/><path class="g" d="M2.004 0h1v2.171h-1z"/><text x="2.004" y="1.67" class="i">~</text><path class="g" d="M3.006 0h1v2.171h-1z"/><text x="3.006" y="1.67" class="h"/><text x="4.008" y="1.67" class="f"></text><text x="6.012" y="1.67" class="j">kill</text><text x="11.022" y="1.67" class="k">-HUP</text><text x="16.032" y="1.67" class="k">95</text><use xlink:href="#15" y="2.171"/><use xlink:href="#16" y="4.342"/><use xlink:href="#17" y="6.513"/><use xlink:href="#18" y="8.684"/><use xlink:href="#19" y="10.855"/><use xlink:href="#20" y="13.026"/><use xlink:href="#21" y="15.197"/><use xlink:href="#22" y="17.368"/><use xlink:href="#23" y="19.539"/><use xlink:href="#24" y="21.71"/><use xlink:href="#25" y="23.881"/><use xlink:href="#26" y="26.052"/><use xlink:href="#27" y="28.223"/><use xlink:href="#28" y="30.394"/><use xlink:href="#29" y="32.565"/><use xlink:href="#30" y="34.736"/><use xlink:href="#31" y="36.907"/></svg><svg x="1496"><use xlink:href="#a"/><text y="1.67" class="f"></text><path class="g" d="M1.002 0h1v2.171h-1z"/><text x="1.002" y="1.67" class="h"/><path class="g" d="M2.004 0h1v2.171h-1z"/><text x="2.004" y="1.67" class="i">~</text><path class="g" d="M3.006 0h1v2.171h-1z"/><text x="3.006" y="1.67" class="h"/><text x="4.008" y="1.67" class="f"></text><text x="6.012" y="1.67" class="j">kill</text><text x="11.022" y="1.67" class="k">-HUP</text><text x="16.032" y="1.67" class="k">950</text><use xlink:href="#15" y="2.171"/><use xlink:href="#16" y="4.342"/><use xlink:href="#17" y="6.513"/><use xlink:href="#18" y="8.684"/><use xlink:href="#19" y="10.855"/><use xlink:href="#20" y="13.026"/><use xlink:href="#21" y="15.197"/><use xlink:href="#22" y="17.368"/><use xlink:href="#23" y="19.539"/><use xlink:href="#24" y="21.71"/><use xlink:href="#25" y="23.881"/><use xlink:href="#26" y="26.052"/><use xlink:href="#27" y="28.223"/><use xlink:href="#28" y="30.394"/><use xlink:href="#29" y="32.565"/><use xlink:href="#30" y="34.736"/><use xlink:href="#31" y="36.907"/></svg><svg x="1564"><use xlink:href="#a"/><text y="1.67" class="f"></text><path class="g" d="M1.002 0h1v2.171h-1z"/><text x="1.002" y="1.67" class="h"/><path class="g" d="M2.004 0h1v2.171h-1z"/><text x="2.004" y="1.67" class="i">~</text><path class="g" d="M3.006 0h1v2.171h-1z"/><text x="3.006" y="1.67" class="h"/><text x="4.008" y="1.67" class="f"></text><text x="6.012" y="1.67" class="j">kill</text><text x="11.022" y="1.67" class="k">-HUP</text><text x="16.032" y="1.67" class="k">9503</text><use xlink:href="#15" y="2.171"/><use xlink:href="#16" y="4.342"/><use xlink:href="#17" y="6.513"/><use xlink:href="#18" y="8.684"/><use xlink:href="#19" y="10.855"/><use xlink:href="#20" y="13.026"/><use xlink:href="#21" y="15.197"/><use xlink:href="#22" y="17.368"/><use xlink:href="#23" y="19.539"/><use xlink:href="#24" y="21.71"/><use xlink:href="#25" y="23.881"/><use xlink:href="#26" y="26.052"/><use xlink:href="#27" y="28.223"/><use xlink:href="#28" y="30.394"/><use xlink:href="#29" y="32.565"/><use xlink:href="#30" y="34.736"/><use xlink:href="#31" y="36.907"/></svg><svg x="1632"><use xlink:href="#a"/><text y="1.67" class="f"></text><path class="g" d="M1.002 0h1v2.171h-1z"/><text x="1.002" y="1.67" class="h"/><path class="g" d="M2.004 0h1v2.171h-1z"/><text x="2.004" y="1.67" class="i">~</text><path class="g" d="M3.006 0h1v2.171h-1z"/><text x="3.006" y="1.67" class="h"/><text x="4.008" y="1.67" class="f"></text><text x="6.012" y="1.67" class="j">kill</text><text x="11.022" y="1.67" class="k">-HUP</text><text x="16.032" y="1.67" class="k">95033</text><use xlink:href="#15" y="2.171"/><use xlink:href="#16" y="4.342"/><use xlink:href="#17" y="6.513"/><use xlink:href="#18" y="8.684"/><use xlink:href="#19" y="10.855"/><use xlink:href="#20" y="13.026"/><use xlink:href="#21" y="15.197"/><use xlink:href="#22" y="17.368"/><use xlink:href="#23" y="19.539"/><use xlink:href="#24" y="21.71"/><use xlink:href="#25" y="23.881"/><use xlink:href="#26" y="26.052"/><use xlink:href="#27" y="28.223"/><use xlink:href="#28" y="30.394"/><use xlink:href="#29" y="32.565"/><use xlink:href="#30" y="34.736"/><use xlink:href="#31" y="36.907"/></svg><svg x="1700"><use xlink:href="#a"/><use xlink:href="#32"/></svg><svg x="1768"><use xlink:href="#a"/><use xlink:href="#32"/></svg><svg x="1836"><use xlink:href="#a"/><use xlink:href="#32"/></svg><svg x="1904"><use xlink:href="#a"/><use xlink:href="#32"/><use xlink:href="#1" y="4.342"/></svg><svg x="1972"><use xlink:href="#a"/><use xlink:href="#32"/><use xlink:href="#1" y="4.342"/></svg><svg x="2040"><use xlink:href="#a"/><use xlink:href="#32"/><use xlink:href="#1" y="4.342"/></svg></svg></g></g></svg></svg>