<svg xmlns="http://www.w3.org/2000/svg" xmlns:xlink="http://www.w3.org/1999/xlink" width="610" height="385.65"><rect width="610" height="385.65" rx="5" ry="5" class="a"/><svg y="0%" x="0%"><circle cx="20" cy="20" r="6" fill="#ff5f58"/><circle cx="40" cy="20" r="6" fill="#ffbd2e"/><circle cx="60" cy="20" r="6" fill="#18c132"/></svg><svg height="325.65" viewBox="0 0 57 32.565" width="570" x="15" xmlns="http://www.w3.org/2000/svg" xmlns:xlink="http://www.w3.org/1999/xlink" y="50"><style>@keyframes m{0%{transform:translateX(0)}.1%{transform:translateX(-57px)}1.2%{transform:translateX(-285px)}3.4%{transform:translateX(-399px)}7.1%{transform:translateX(-456px)}9.1%{transform:translateX(-513px)}9.9%{transform:translateX(-570px)}18.5%{transform:translateX(-627px)}23.6%{transform:translateX(-741px)}24%{transform:translateX(-798px)}25.1%{transform:translateX(-855px)}26.5%{transform:translateX(-912px)}32.1%{transform:translateX(-969px)}36.8%{transform:translateX(-1083px)}39.6%{transform:translateX(-1140px)}40.4%{transform:translateX(-1197px)}47.1%{transform:translateX(-1254px)}50.9%{transform:translateX(-1368px)}51.4%{transform:translateX(-1425px)}56.6%{transform:translateX(-1482px)}58.2%{transform:translateX(-1539px)}60.2%{transform:translateX(-1596px)}67.7%{transform:translateX(-1653px)}71.3%{transform:translateX(-1767px)}73.2%{transform:translateX(-1881px)}75.2%{transform:translateX(-1938px)}83.8%{transform:translateX(-1995px)}to{transform:translateX(-2052px)}}.a{fill:#282d35}.f{white-space:pre}.f,.g{fill:#303030}.h,.i,.j{fill:#0087af;white-space:pre}.i,.j{fill:#00afff;font-weight:700}.j{fill:#e88388}.k{fill:#6f7783}.k,.o,.p{white-space:pre}.o{fill:#b9c0cb;text-decoration:underline}.p{fill:#a8cc8c}</style><g font-family="Monaco,Consolas,Menlo,'Bitstream Vera Sans Mono','Powerline Symbols',monospace" font-size="1.67"><defs><symbol id="1"><text y="1.67" class="f"></text><path class="g" d="M1.002 0h1v2.171h-1z"/><text x="1.002" y="1.67" class="h"/><path class="g" d="M2.004 0h1v2.171h-1z"/><text x="2.004" y="1.67" class="i">~</text><path class="g" d="M3.006 0h1v2.171h-1z"/><text x="3.006" y="1.67" class="h"/><text x="4.008" y="1.67" class="f"></text></symbol><symbol id="2"><text y="1.67" class="f"></text><path class="g" d="M1.002 0h1v2.171h-1z"/><text x="1.002" y="1.67" class="h"/><path class="g" d="M2.004 0h1v2.171h-1z"/><text x="2.004" y="1.67" class="i">~</text><path class="g" d="M3.006 0h1v2.171h-1z"/><text x="3.006" y="1.67" class="h"/><text x="4.008" y="1.67" class="f"></text><text x="6.012" y="1.67" class="j">n</text></symbol><symbol id="3"><text y="1.67" class="f"></text><path class="g" d="M1.002 0h1v2.171h-1z"/><text x="1.002" y="1.67" class="h"/><path class="g" d="M2.004 0h1v2.171h-1z"/><text x="2.004" y="1.67" class="i">~</text><path class="g" d="M3.006 0h1v2.171h-1z"/><text x="3.006" y="1.67" class="h"/><text x="4.008" y="1.67" class="f"></text><text x="6.012" y="1.67" class="j">n</text><text x="7.014" y="1.67" class="k">map</text><text x="11.022" y="1.67" class="k">-p443</text><text x="17.034" y="1.67" class="k">-n</text><text x="20.04" y="1.67" class="k">-Pn</text><text x="24.048" y="1.67" class="k">-T5</text><text x="28.056" y="1.67" class="k">57.128.96.133</text></symbol><symbol id="a"><path fill="transparent" d="M0 0h57v15H0z"/></symbol></defs><path class="a" d="M0 0h57v32.565H0z"/><g style="animation-duration:5.144087s;animation-iteration-count:infinite;animation-name:m;animation-timing-function:steps(1,end)"><svg width="2109"><svg><use xlink:href="#a"/></svg><svg x="57"><use xlink:href="#a"/><use xlink:href="#1"/></svg><svg x="114"><use xlink:href="#a"/></svg><svg x="171"><use xlink:href="#a"/><use xlink:href="#1"/></svg><svg x="228"><use xlink:href="#a"/><use xlink:href="#1"/></svg><svg x="285"><use xlink:href="#a"/><use xlink:href="#1"/></svg><svg x="342"><use xlink:href="#a"/><text y="1.67" class="f"></text><path class="g" d="M1.002 0h1v2.171h-1z"/><text x="1.002" y="1.67" class="h"/><path class="g" d="M2.004 0h1v2.171h-1z"/><text x="2.004" y="1.67" class="i">~</text><path class="g" d="M3.006 0h1v2.171h-1z"/><text x="3.006" y="1.67" class="h"/><text x="4.008" y="1.67" class="f"></text><text x="6.012" y="1.67" class="o">p</text></svg><svg x="399"><use xlink:href="#a"/><text y="1.67" class="f"></text><path class="g" d="M1.002 0h1v2.171h-1z"/><text x="1.002" y="1.67" class="h"/><path class="g" d="M2.004 0h1v2.171h-1z"/><text x="2.004" y="1.67" class="i">~</text><path class="g" d="M3.006 0h1v2.171h-1z"/><text x="3.006" y="1.67" class="h"/><text x="4.008" y="1.67" class="f"></text><text x="6.012" y="1.67" class="o">p</text><text x="7.014" y="1.67" class="k">ython</text><text x="13.026" y="1.67" class="k">-m</text><text x="16.032" y="1.67" class="k">http.server</text><text x="28.056" y="1.67" class="k">8000</text></svg><svg x="456"><use xlink:href="#a"/><text y="1.67" class="f"></text><path class="g" d="M1.002 0h1v2.171h-1z"/><text x="1.002" y="1.67" class="h"/><path class="g" d="M2.004 0h1v2.171h-1z"/><text x="2.004" y="1.67" class="i">~</text><path class="g" d="M3.006 0h1v2.171h-1z"/><text x="3.006" y="1.67" class="h"/><text x="4.008" y="1.67" class="f"></text><text x="6.012" y="1.67" class="j">py</text><text x="8.016" y="1.67" class="k">thon</text><text x="13.026" y="1.67" class="k">-m</text><text x="16.032" y="1.67" class="k">http.server</text><text x="28.056" y="1.67" class="k">8000</text></svg><svg x="513"><use xlink:href="#a"/><text y="1.67" class="f"></text><path class="g" d="M1.002 0h1v2.171h-1z"/><text x="1.002" y="1.67" class="h"/><path class="g" d="M2.004 0h1v2.171h-1z"/><text x="2.004" y="1.67" class="i">~</text><path class="g" d="M3.006 0h1v2.171h-1z"/><text x="3.006" y="1.67" class="h"/><text x="4.008" y="1.67" class="f"></text><text x="6.012" y="1.67" class="j">pyt</text><text x="9.018" y="1.67" class="k">hon</text><text x="13.026" y="1.67" class="k">-m</text><text x="16.032" y="1.67" class="k">http.server</text><text x="28.056" y="1.67" class="k">8000</text></svg><svg x="570"><use xlink:href="#a"/><text y="1.67" class="f"></text><path class="g" d="M1.002 0h1v2.171h-1z"/><text x="1.002" y="1.67" class="h"/><path class="g" d="M2.004 0h1v2.171h-1z"/><text x="2.004" y="1.67" class="i">~</text><path class="g" d="M3.006 0h1v2.171h-1z"/><text x="3.006" y="1.67" class="h"/><text x="4.008" y="1.67" class="f"></text><text x="6.012" y="1.67" class="j">pyth</text><text x="10.02" y="1.67" class="k">on</text><text x="13.026" y="1.67" class="k">-m</text><text x="16.032" y="1.67" class="k">http.server</text><text x="28.056" y="1.67" class="k">8000</text></svg><svg x="627"><use xlink:href="#a"/><use xlink:href="#1"/></svg><svg x="684"><use xlink:href="#a"/><text y="1.67" class="f"></text><path class="g" d="M1.002 0h1v2.171h-1z"/><text x="1.002" y="1.67" class="h"/><path class="g" d="M2.004 0h1v2.171h-1z"/><text x="2.004" y="1.67" class="i">~</text><path class="g" d="M3.006 0h1v2.171h-1z"/><text x="3.006" y="1.67" class="h"/><text x="4.008" y="1.67" class="f"></text><text x="6.012" y="1.67" class="j">b</text></svg><svg x="741"><use xlink:href="#a"/><text y="1.67" class="f"></text><path class="g" d="M1.002 0h1v2.171h-1z"/><text x="1.002" y="1.67" class="h"/><path class="g" d="M2.004 0h1v2.171h-1z"/><text x="2.004" y="1.67" class="i">~</text><path class="g" d="M3.006 0h1v2.171h-1z"/><text x="3.006" y="1.67" class="h"/><text x="4.008" y="1.67" class="f"></text><text x="6.012" y="1.67" class="j">b</text><text x="7.014" y="1.67" class="k">ash</text><text x="11.022" y="1.67" class="k">-c</text><text x="14.028" y="1.67" class="k">"apt</text><text x="19.038" y="1.67" class="k">list</text><text x="24.048" y="1.67" class="k">--installed</text><text x="36.072" y="1.67" class="k">*imagemagick*"</text></svg><svg x="798"><use xlink:href="#a"/><text y="1.67" class="f"></text><path class="g" d="M1.002 0h1v2.171h-1z"/><text x="1.002" y="1.67" class="h"/><path class="g" d="M2.004 0h1v2.171h-1z"/><text x="2.004" y="1.67" class="i">~</text><path class="g" d="M3.006 0h1v2.171h-1z"/><text x="3.006" y="1.67" class="h"/><text x="4.008" y="1.67" class="f"></text><text x="6.012" y="1.67" class="j">ba</text><text x="8.016" y="1.67" class="k">sh</text><text x="11.022" y="1.67" class="k">-c</text><text x="14.028" y="1.67" class="k">"apt</text><text x="19.038" y="1.67" class="k">list</text><text x="24.048" y="1.67" class="k">--installed</text><text x="36.072" y="1.67" class="k">*imagemagick*"</text></svg><svg x="855"><use xlink:href="#a"/><text y="1.67" class="f"></text><path class="g" d="M1.002 0h1v2.171h-1z"/><text x="1.002" y="1.67" class="h"/><path class="g" d="M2.004 0h1v2.171h-1z"/><text x="2.004" y="1.67" class="i">~</text><path class="g" d="M3.006 0h1v2.171h-1z"/><text x="3.006" y="1.67" class="h"/><text x="4.008" y="1.67" class="f"></text><text x="6.012" y="1.67" class="j">bas</text><text x="9.018" y="1.67" class="k">h</text><text x="11.022" y="1.67" class="k">-c</text><text x="14.028" y="1.67" class="k">"apt</text><text x="19.038" y="1.67" class="k">list</text><text x="24.048" y="1.67" class="k">--installed</text><text x="36.072" y="1.67" class="k">*imagemagick*"</text></svg><svg x="912"><use xlink:href="#a"/><text y="1.67" class="f"></text><path class="g" d="M1.002 0h1v2.171h-1z"/><text x="1.002" y="1.67" class="h"/><path class="g" d="M2.004 0h1v2.171h-1z"/><text x="2.004" y="1.67" class="i">~</text><path class="g" d="M3.006 0h1v2.171h-1z"/><text x="3.006" y="1.67" class="h"/><text x="4.008" y="1.67" class="f"></text><text x="6.012" y="1.67" class="p">bash</text><text x="11.022" y="1.67" class="k">-c</text><text x="14.028" y="1.67" class="k">"apt</text><text x="19.038" y="1.67" class="k">list</text><text x="24.048" y="1.67" class="k">--installed</text><text x="36.072" y="1.67" class="k">*imagemagick*"</text></svg><svg x="969"><use xlink:href="#a"/><use xlink:href="#1"/></svg><svg x="1026"><use xlink:href="#a"/><use xlink:href="#2"/></svg><svg x="1083"><use xlink:href="#a"/><use xlink:href="#3"/></svg><svg x="1140"><use xlink:href="#a"/><text y="1.67" class="f"></text><path class="g" d="M1.002 0h1v2.171h-1z"/><text x="1.002" y="1.67" class="h"/><path class="g" d="M2.004 0h1v2.171h-1z"/><text x="2.004" y="1.67" class="i">~</text><path class="g" d="M3.006 0h1v2.171h-1z"/><text x="3.006" y="1.67" class="h"/><text x="4.008" y="1.67" class="f"></text><text x="6.012" y="1.67" class="p">nm</text><text x="8.016" y="1.67" class="k">ap</text><text x="11.022" y="1.67" class="k">-p443</text><text x="17.034" y="1.67" class="k">-n</text><text x="20.04" y="1.67" class="k">-Pn</text><text x="24.048" y="1.67" class="k">-T5</text><text x="28.056" y="1.67" class="k">57.128.96.133</text></svg><svg x="1197"><use xlink:href="#a"/><text y="1.67" class="f"></text><path class="g" d="M1.002 0h1v2.171h-1z"/><text x="1.002" y="1.67" class="h"/><path class="g" d="M2.004 0h1v2.171h-1z"/><text x="2.004" y="1.67" class="i">~</text><path class="g" d="M3.006 0h1v2.171h-1z"/><text x="3.006" y="1.67" class="h"/><text x="4.008" y="1.67" class="f"></text><text x="6.012" y="1.67" class="j">nma</text><text x="9.018" y="1.67" class="k">p</text><text x="11.022" y="1.67" class="k">-p443</text><text x="17.034" y="1.67" class="k">-n</text><text x="20.04" y="1.67" class="k">-Pn</text><text x="24.048" y="1.67" class="k">-T5</text><text x="28.056" y="1.67" class="k">57.128.96.133</text></svg><svg x="1254"><use xlink:href="#a"/><use xlink:href="#1"/></svg><svg x="1311"><use xlink:href="#a"/><text y="1.67" class="f"></text><path class="g" d="M1.002 0h1v2.171h-1z"/><text x="1.002" y="1.67" class="h"/><path class="g" d="M2.004 0h1v2.171h-1z"/><text x="2.004" y="1.67" class="i">~</text><path class="g" d="M3.006 0h1v2.171h-1z"/><text x="3.006" y="1.67" class="h"/><text x="4.008" y="1.67" class="f"></text><text x="6.012" y="1.67" class="j">a</text></svg><svg x="1368"><use xlink:href="#a"/><text y="1.67" class="f"></text><path class="g" d="M1.002 0h1v2.171h-1z"/><text x="1.002" y="1.67" class="h"/><path class="g" d="M2.004 0h1v2.171h-1z"/><text x="2.004" y="1.67" class="i">~</text><path class="g" d="M3.006 0h1v2.171h-1z"/><text x="3.006" y="1.67" class="h"/><text x="4.008" y="1.67" class="f"></text><text x="6.012" y="1.67" class="j">a</text><text x="7.014" y="1.67" class="k">sciinema</text><text x="16.032" y="1.67" class="k">rec</text><text x="20.04" y="1.67" class="k">-i</text><text x="23.046" y="1.67" class="k">2</text></svg><svg x="1425"><use xlink:href="#a"/><text y="1.67" class="f"></text><path class="g" d="M1.002 0h1v2.171h-1z"/><text x="1.002" y="1.67" class="h"/><path class="g" d="M2.004 0h1v2.171h-1z"/><text x="2.004" y="1.67" class="i">~</text><path class="g" d="M3.006 0h1v2.171h-1z"/><text x="3.006" y="1.67" class="h"/><text x="4.008" y="1.67" class="f"></text><text x="6.012" y="1.67" class="p">as</text><text x="8.016" y="1.67" class="k">ciinema</text><text x="16.032" y="1.67" class="k">rec</text><text x="20.04" y="1.67" class="k">-i</text><text x="23.046" y="1.67" class="k">2</text></svg><svg x="1482"><use xlink:href="#a"/><text y="1.67" class="f"></text><path class="g" d="M1.002 0h1v2.171h-1z"/><text x="1.002" y="1.67" class="h"/><path class="g" d="M2.004 0h1v2.171h-1z"/><text x="2.004" y="1.67" class="i">~</text><path class="g" d="M3.006 0h1v2.171h-1z"/><text x="3.006" y="1.67" class="h"/><text x="4.008" y="1.67" class="f"></text><text x="6.012" y="1.67" class="j">asc</text><text x="9.018" y="1.67" class="k">iinema</text><text x="16.032" y="1.67" class="k">rec</text><text x="20.04" y="1.67" class="k">-i</text><text x="23.046" y="1.67" class="k">2</text></svg><svg x="1539"><use xlink:href="#a"/><text y="1.67" class="f"></text><path class="g" d="M1.002 0h1v2.171h-1z"/><text x="1.002" y="1.67" class="h"/><path class="g" d="M2.004 0h1v2.171h-1z"/><text x="2.004" y="1.67" class="i">~</text><path class="g" d="M3.006 0h1v2.171h-1z"/><text x="3.006" y="1.67" class="h"/><text x="4.008" y="1.67" class="f"></text><text x="6.012" y="1.67" class="j">asci</text><text x="10.02" y="1.67" class="k">inema</text><text x="16.032" y="1.67" class="k">rec</text><text x="20.04" y="1.67" class="k">-i</text><text x="23.046" y="1.67" class="k">2</text></svg><svg x="1596"><use xlink:href="#a"/><text y="1.67" class="f"></text><path class="g" d="M1.002 0h1v2.171h-1z"/><text x="1.002" y="1.67" class="h"/><path class="g" d="M2.004 0h1v2.171h-1z"/><text x="2.004" y="1.67" class="i">~</text><path class="g" d="M3.006 0h1v2.171h-1z"/><text x="3.006" y="1.67" class="h"/><text x="4.008" y="1.67" class="f"></text><text x="6.012" y="1.67" class="j">ascii</text><text x="11.022" y="1.67" class="k">nema</text><text x="16.032" y="1.67" class="k">rec</text><text x="20.04" y="1.67" class="k">-i</text><text x="23.046" y="1.67" class="k">2</text></svg><svg x="1653"><use xlink:href="#a"/><use xlink:href="#1"/></svg><svg x="1710"><use xlink:href="#a"/><use xlink:href="#2"/></svg><svg x="1767"><use xlink:href="#a"/><use xlink:href="#3"/></svg><svg x="1824"><use xlink:href="#a"/><text y="1.67" class="f"></text><path class="g" d="M1.002 0h1v2.171h-1z"/><text x="1.002" y="1.67" class="h"/><path class="g" d="M2.004 0h1v2.171h-1z"/><text x="2.004" y="1.67" class="i">~</text><path class="g" d="M3.006 0h1v2.171h-1z"/><text x="3.006" y="1.67" class="h"/><text x="4.008" y="1.67" class="f"></text><text x="6.012" y="1.67" class="j">nv</text></svg><svg x="1881"><use xlink:href="#a"/><text y="1.67" class="f"></text><path class="g" d="M1.002 0h1v2.171h-1z"/><text x="1.002" y="1.67" class="h"/><path class="g" d="M2.004 0h1v2.171h-1z"/><text x="2.004" y="1.67" class="i">~</text><path class="g" d="M3.006 0h1v2.171h-1z"/><text x="3.006" y="1.67" class="h"/><text x="4.008" y="1.67" class="f"></text><text x="6.012" y="1.67" class="j">nv</text><text x="8.016" y="1.67" class="k">im</text><text x="11.022" y="1.67" class="k">~/.zshrc</text></svg><svg x="1938"><use xlink:href="#a"/><text y="1.67" class="f"></text><path class="g" d="M1.002 0h1v2.171h-1z"/><text x="1.002" y="1.67" class="h"/><path class="g" d="M2.004 0h1v2.171h-1z"/><text x="2.004" y="1.67" class="i">~</text><path class="g" d="M3.006 0h1v2.171h-1z"/><text x="3.006" y="1.67" class="h"/><text x="4.008" y="1.67" class="f"></text><text x="6.012" y="1.67" class="j">nvi</text><text x="9.018" y="1.67" class="k">m</text><text x="11.022" y="1.67" class="k">~/.zshrc</text></svg><svg x="1995"><use xlink:href="#a"/><use xlink:href="#1"/></svg><svg x="2052"><use xlink:href="#a"/><use xlink:href="#1"/></svg></svg></g></g></svg></svg>