<svg xmlns="http://www.w3.org/2000/svg" xmlns:xlink="http://www.w3.org/1999/xlink" width="570" height="363.94"><rect width="570" height="363.94" rx="5" ry="5" class="a"/><svg y="0%" x="0%"><circle cx="20" cy="20" r="6" fill="#ff5f58"/><circle cx="40" cy="20" r="6" fill="#ffbd2e"/><circle cx="60" cy="20" r="6" fill="#18c132"/></svg><svg height="303.94" viewBox="0 0 53 30.394" width="530" x="15" xmlns="http://www.w3.org/2000/svg" xmlns:xlink="http://www.w3.org/1999/xlink" y="50"><style>@keyframes r{0%{transform:translateX(0)}.1%{transform:translateX(-53px)}1.4%{transform:translateX(-265px)}3.4%{transform:translateX(-318px)}7%{transform:translateX(-371px)}11%{transform:translateX(-424px)}13.6%{transform:translateX(-477px)}16.7%{transform:translateX(-530px)}17.8%{transform:translateX(-583px)}22.1%{transform:translateX(-742px)}32.2%{transform:translateX(-795px)}35.7%{transform:translateX(-848px)}36.4%{transform:translateX(-901px)}39.8%{transform:translateX(-954px)}49.7%{transform:translateX(-1007px)}54.4%{transform:translateX(-1060px)}57.1%{transform:translateX(-1113px)}64%{transform:translateX(-1219px)}82.3%{transform:translateX(-1272px)}84.9%{transform:translateX(-1325px)}94%{transform:translateX(-1484px)}94.1%{transform:translateX(-1537px)}94.3%{transform:translateX(-1643px)}to{transform:translateX(-1696px)}}.a{fill:#282d35}.f{white-space:pre}.f,.g{fill:#303030}.h{fill:#0087af}.h,.i,.j,.k,.l{white-space:pre}.i{fill:#00afff;font-weight:700}.j,.k,.l{fill:#8be9fd}.k,.l{fill:#ffb86c}.l{fill:#ffe9fd}.m{fill:#b9c0cb}.m,.n,.o,.t{white-space:pre}.n{fill:#e88388;font-weight:700}.o,.t{fill:#f8f8f2}.t{fill:#f55}</style><g font-family="Monaco,Consolas,Menlo,'Bitstream Vera Sans Mono','Powerline Symbols',monospace" font-size="1.67"><defs><symbol id="1"><text y="1.67" class="f"></text><path class="g" d="M1.002 0h1v2.171h-1z"/><text x="1.002" y="1.67" class="h"/><path class="g" d="M2.004 0h1v2.171h-1z"/><text x="2.004" y="1.67" class="i">~</text><path class="g" d="M3.006 0h1v2.171h-1z"/><text x="3.006" y="1.67" class="h"/><text x="4.008" y="1.67" class="f"></text></symbol><symbol id="2"><text y="1.67" class="f"></text><path class="g" d="M1.002 0h1v2.171h-1z"/><text x="1.002" y="1.67" class="h"/><path class="g" d="M2.004 0h1v2.171h-1z"/><text x="2.004" y="1.67" class="i">~</text><path class="g" d="M3.006 0h1v2.171h-1z"/><text x="3.006" y="1.67" class="h"/><text x="4.008" y="1.67" class="f"></text><text x="6.012" y="1.67" class="j">kill</text></symbol><symbol id="3"><text y="1.67" class="f"></text><path class="g" d="M1.002 0h1v2.171h-1z"/><text x="1.002" y="1.67" class="h"/><path class="g" d="M2.004 0h1v2.171h-1z"/><text x="2.004" y="1.67" class="i">~</text><path class="g" d="M3.006 0h1v2.171h-1z"/><text x="3.006" y="1.67" class="h"/><text x="4.008" y="1.67" class="f"></text><text x="6.012" y="1.67" class="j">kill</text><text x="11.022" y="1.67" class="k">-</text></symbol><symbol id="4"><text y="1.67" class="f"></text><path class="g" d="M1.002 0h1v2.171h-1z"/><text x="1.002" y="1.67" class="h"/><path class="g" d="M2.004 0h1v2.171h-1z"/><text x="2.004" y="1.67" class="i">~</text><path class="g" d="M3.006 0h1v2.171h-1z"/><text x="3.006" y="1.67" class="h"/><text x="4.008" y="1.67" class="f"></text><text x="6.012" y="1.67" class="l">kill</text><text x="11.022" y="1.67" class="m">-</text></symbol><symbol id="5"><text y="1.67" class="m">Completing</text><text x="11.022" y="1.67" class="m">signal</text></symbol><symbol id="6"><text y="1.67" class="m">-ALRM</text><text x="9.018" y="1.67" class="m">-INT</text><text x="18.036" y="1.67" class="m">-QUIT</text><text x="27.054" y="1.67" class="m">-TSTP</text><text x="36.072" y="1.67" class="m">-WINCH</text></symbol><symbol id="7"><text y="1.67" class="m">-BUS</text><text x="9.018" y="1.67" class="m">-IOT</text><text x="18.036" y="1.67" class="m">-SEGV</text><text x="27.054" y="1.67" class="m">-TTIN</text><text x="36.072" y="1.67" class="m">-XCPU</text></symbol><symbol id="8"><text y="1.67" class="m">-CHLD</text><text x="9.018" y="1.67" class="m">-KILL</text><text x="18.036" y="1.67" class="m">-STKFLT</text><text x="27.054" y="1.67" class="m">-TTOU</text><text x="36.072" y="1.67" class="m">-XFSZ</text></symbol><symbol id="9"><text y="1.67" class="m">-CONT</text><text x="9.018" y="1.67" class="m">-PIPE</text><text x="18.036" y="1.67" class="m">-STOP</text><text x="27.054" y="1.67" class="m">-URG</text></symbol><symbol id="10"><text y="1.67" class="m">-FPE</text><text x="9.018" y="1.67" class="m">-POLL</text><text x="18.036" y="1.67" class="m">-SYS</text><text x="27.054" y="1.67" class="m">-USR1</text></symbol><symbol id="11"><text y="1.67" class="m">-HUP</text><text x="9.018" y="1.67" class="m">-PROF</text><text x="18.036" y="1.67" class="m">-TERM</text><text x="27.054" y="1.67" class="m">-USR2</text></symbol><symbol id="12"><text y="1.67" class="m">-ILL</text><text x="9.018" y="1.67" class="m">-PWR</text><text x="18.036" y="1.67" class="m">-TRAP</text><text x="27.054" y="1.67" class="m">-VTALRM</text></symbol><symbol id="13"><text y="1.67" class="m">Completing</text><text x="11.022" y="1.67" class="m">option</text></symbol><symbol id="14"><text y="1.67" class="m">-l</text><text x="4.008" y="1.67" class="m">--</text><text x="7.014" y="1.67" class="m">list</text><text x="12.024" y="1.67" class="m">signal</text><text x="19.038" y="1.67" class="m">names</text><text x="25.05" y="1.67" class="m">or</text><text x="28.056" y="1.67" class="m">numbers</text><text x="36.072" y="1.67" class="m">of</text><text x="39.078" y="1.67" class="m">specified</text></symbol><symbol id="15"><text y="1.67" class="m">-n</text><text x="4.008" y="1.67" class="m">--</text><text x="7.014" y="1.67" class="m">specify</text><text x="15.03" y="1.67" class="m">signal</text><text x="22.044" y="1.67" class="m">number</text></symbol><symbol id="16"><text y="1.67" class="m">-s</text><text x="4.008" y="1.67" class="m">--</text><text x="7.014" y="1.67" class="m">specify</text><text x="15.03" y="1.67" class="m">signal</text><text x="22.044" y="1.67" class="m">name</text></symbol><symbol id="17"><text y="1.67" class="f"></text><path class="g" d="M1.002 0h1v2.171h-1z"/><text x="1.002" y="1.67" class="h"/><path class="g" d="M2.004 0h1v2.171h-1z"/><text x="2.004" y="1.67" class="i">~</text><path class="g" d="M3.006 0h1v2.171h-1z"/><text x="3.006" y="1.67" class="h"/><text x="4.008" y="1.67" class="f"></text><text x="6.012" y="1.67" class="j">kill</text><text x="11.022" y="1.67" class="k">-HUP</text></symbol><symbol id="18"><text y="1.67" class="f"></text><path class="g" d="M1.002 0h1v2.171h-1z"/><text x="1.002" y="1.67" class="h"/><path class="g" d="M2.004 0h1v2.171h-1z"/><text x="2.004" y="1.67" class="i">~</text><path class="g" d="M3.006 0h1v2.171h-1z"/><text x="3.006" y="1.67" class="h"/><text x="4.008" y="1.67" class="f"></text><text x="6.012" y="1.67" class="l">kill</text><text x="11.022" y="1.67" class="k">-HUP</text><text x="16.032" y="1.67" class="m">530</text></symbol><symbol id="19"><text y="1.67" class="m">Completing</text><text x="11.022" y="1.67" class="m">process</text><text x="19.038" y="1.67" class="m">ID</text></symbol><symbol id="20"><text x="2.004" y="1.67" class="n">53025</text><text x="9.018" y="1.67" class="m">0.7</text><text x="13.026" y="1.67" class="m">pts/1</text><text x="22.044" y="1.67" class="m">00:00:03</text><text x="31.062" y="1.67" class="m">-zsh</text></symbol><symbol id="21"><text x="2.004" y="1.67" class="n">53028</text><text x="9.018" y="1.67" class="m">0.0</text><text x="13.026" y="1.67" class="m">pts/1</text><text x="22.044" y="1.67" class="m">00:00:00</text><text x="31.062" y="1.67" class="m">-zsh</text></symbol><symbol id="22"><text x="2.004" y="1.67" class="n">53041</text><text x="9.018" y="1.67" class="m">0.0</text><text x="13.026" y="1.67" class="m">pts/1</text><text x="22.044" y="1.67" class="m">00:00:00</text><text x="31.062" y="1.67" class="m">/home/test/.cache/git</text></symbol><symbol id="23"><text y="1.67" class="f"></text><path class="g" d="M1.002 0h1v2.171h-1z"/><text x="1.002" y="1.67" class="h"/><path class="g" d="M2.004 0h1v2.171h-1z"/><text x="2.004" y="1.67" class="i">~</text><path class="g" d="M3.006 0h1v2.171h-1z"/><text x="3.006" y="1.67" class="h"/><text x="4.008" y="1.67" class="f"></text><text x="6.012" y="1.67" class="j">kill</text><text x="11.022" y="1.67" class="k">-HUP</text><text x="16.032" y="1.67" class="o">53025</text></symbol><symbol id="24"><text y="1.67" style="white-space:pre" fill="#5fd700">❯</text><text x="2.004" y="1.67" class="j">kill</text><text x="7.014" y="1.67" class="k">-HUP</text><text x="12.024" y="1.67" class="o">53025</text></symbol><symbol id="a"><path fill="transparent" d="M0 0h53v14H0z"/></symbol></defs><path class="a" d="M0 0h53v30.394H0z"/><g style="animation-duration:3.702924s;animation-iteration-count:infinite;animation-name:r;animation-timing-function:steps(1,end)"><svg width="1749"><svg><use xlink:href="#a"/></svg><svg x="53"><use xlink:href="#a"/><use xlink:href="#1"/></svg><svg x="106"><use xlink:href="#a"/></svg><svg x="159"><use xlink:href="#a"/><use xlink:href="#1"/></svg><svg x="212"><use xlink:href="#a"/><use xlink:href="#1"/></svg><svg x="265"><use xlink:href="#a"/><use xlink:href="#1"/></svg><svg x="318"><use xlink:href="#a"/><text y="1.67" class="f"></text><path class="g" d="M1.002 0h1v2.171h-1z"/><text x="1.002" y="1.67" class="h"/><path class="g" d="M2.004 0h1v2.171h-1z"/><text x="2.004" y="1.67" class="i">~</text><path class="g" d="M3.006 0h1v2.171h-1z"/><text x="3.006" y="1.67" class="h"/><text x="4.008" y="1.67" class="f"></text><text x="6.012" y="1.67" class="t">k</text></svg><svg x="371"><use xlink:href="#a"/><text y="1.67" class="f"></text><path class="g" d="M1.002 0h1v2.171h-1z"/><text x="1.002" y="1.67" class="h"/><path class="g" d="M2.004 0h1v2.171h-1z"/><text x="2.004" y="1.67" class="i">~</text><path class="g" d="M3.006 0h1v2.171h-1z"/><text x="3.006" y="1.67" class="h"/><text x="4.008" y="1.67" class="f"></text><text x="6.012" y="1.67" class="t">ki</text></svg><svg x="424"><use xlink:href="#a"/><text y="1.67" class="f"></text><path class="g" d="M1.002 0h1v2.171h-1z"/><text x="1.002" y="1.67" class="h"/><path class="g" d="M2.004 0h1v2.171h-1z"/><text x="2.004" y="1.67" class="i">~</text><path class="g" d="M3.006 0h1v2.171h-1z"/><text x="3.006" y="1.67" class="h"/><text x="4.008" y="1.67" class="f"></text><text x="6.012" y="1.67" class="t">kil</text></svg><svg x="477"><use xlink:href="#a"/><use xlink:href="#2"/></svg><svg x="530"><use xlink:href="#a"/><use xlink:href="#2"/></svg><svg x="583"><use xlink:href="#a"/><use xlink:href="#3"/></svg><svg x="636"><use xlink:href="#a"/><use xlink:href="#3"/></svg><svg x="689"><use xlink:href="#a"/><use xlink:href="#4"/></svg><svg x="742"><use xlink:href="#a"/><use xlink:href="#4"/><use xlink:href="#5" y="2.171"/><use xlink:href="#6" y="4.342"/><use xlink:href="#7" y="6.513"/><use xlink:href="#8" y="8.684"/><use xlink:href="#9" y="10.855"/><use xlink:href="#10" y="13.026"/><use xlink:href="#11" y="15.197"/><use xlink:href="#12" y="17.368"/><use xlink:href="#13" y="19.539"/><use xlink:href="#14" y="21.71"/><use xlink:href="#15" y="23.881"/><use xlink:href="#16" y="26.052"/></svg><svg x="795"><use xlink:href="#a"/><text y="1.67" class="f"></text><path class="g" d="M1.002 0h1v2.171h-1z"/><text x="1.002" y="1.67" class="h"/><path class="g" d="M2.004 0h1v2.171h-1z"/><text x="2.004" y="1.67" class="i">~</text><path class="g" d="M3.006 0h1v2.171h-1z"/><text x="3.006" y="1.67" class="h"/><text x="4.008" y="1.67" class="f"></text><text x="6.012" y="1.67" class="j">kill</text><text x="11.022" y="1.67" class="k">-H</text><use xlink:href="#5" y="2.171"/><use xlink:href="#6" y="4.342"/><use xlink:href="#7" y="6.513"/><use xlink:href="#8" y="8.684"/><use xlink:href="#9" y="10.855"/><use xlink:href="#10" y="13.026"/><use xlink:href="#11" y="15.197"/><use xlink:href="#12" y="17.368"/><use xlink:href="#13" y="19.539"/><use xlink:href="#14" y="21.71"/><use xlink:href="#15" y="23.881"/><use xlink:href="#16" y="26.052"/></svg><svg x="848"><use xlink:href="#a"/><text y="1.67" class="f"></text><path class="g" d="M1.002 0h1v2.171h-1z"/><text x="1.002" y="1.67" class="h"/><path class="g" d="M2.004 0h1v2.171h-1z"/><text x="2.004" y="1.67" class="i">~</text><path class="g" d="M3.006 0h1v2.171h-1z"/><text x="3.006" y="1.67" class="h"/><text x="4.008" y="1.67" class="f"></text><text x="6.012" y="1.67" class="j">kill</text><text x="11.022" y="1.67" class="k">-HU</text><use xlink:href="#5" y="2.171"/><use xlink:href="#6" y="4.342"/><use xlink:href="#7" y="6.513"/><use xlink:href="#8" y="8.684"/><use xlink:href="#9" y="10.855"/><use xlink:href="#10" y="13.026"/><use xlink:href="#11" y="15.197"/><use xlink:href="#12" y="17.368"/><use xlink:href="#13" y="19.539"/><use xlink:href="#14" y="21.71"/><use xlink:href="#15" y="23.881"/><use xlink:href="#16" y="26.052"/></svg><svg x="901"><use xlink:href="#a"/><use xlink:href="#17"/><use xlink:href="#5" y="2.171"/><use xlink:href="#6" y="4.342"/><use xlink:href="#7" y="6.513"/><use xlink:href="#8" y="8.684"/><use xlink:href="#9" y="10.855"/><use xlink:href="#10" y="13.026"/><use xlink:href="#11" y="15.197"/><use xlink:href="#12" y="17.368"/><use xlink:href="#13" y="19.539"/><use xlink:href="#14" y="21.71"/><use xlink:href="#15" y="23.881"/><use xlink:href="#16" y="26.052"/></svg><svg x="954"><use xlink:href="#a"/><use xlink:href="#17"/><use xlink:href="#5" y="2.171"/><use xlink:href="#6" y="4.342"/><use xlink:href="#7" y="6.513"/><use xlink:href="#8" y="8.684"/><use xlink:href="#9" y="10.855"/><use xlink:href="#10" y="13.026"/><use xlink:href="#11" y="15.197"/><use xlink:href="#12" y="17.368"/><use xlink:href="#13" y="19.539"/><use xlink:href="#14" y="21.71"/><use xlink:href="#15" y="23.881"/><use xlink:href="#16" y="26.052"/></svg><svg x="1007"><use xlink:href="#a"/><text y="1.67" class="f"></text><path class="g" d="M1.002 0h1v2.171h-1z"/><text x="1.002" y="1.67" class="h"/><path class="g" d="M2.004 0h1v2.171h-1z"/><text x="2.004" y="1.67" class="i">~</text><path class="g" d="M3.006 0h1v2.171h-1z"/><text x="3.006" y="1.67" class="h"/><text x="4.008" y="1.67" class="f"></text><text x="6.012" y="1.67" class="j">kill</text><text x="11.022" y="1.67" class="k">-HUP</text><text x="16.032" y="1.67" class="o">5</text><use xlink:href="#5" y="2.171"/><use xlink:href="#6" y="4.342"/><use xlink:href="#7" y="6.513"/><use xlink:href="#8" y="8.684"/><use xlink:href="#9" y="10.855"/><use xlink:href="#10" y="13.026"/><use xlink:href="#11" y="15.197"/><use xlink:href="#12" y="17.368"/><use xlink:href="#13" y="19.539"/><use xlink:href="#14" y="21.71"/><use xlink:href="#15" y="23.881"/><use xlink:href="#16" y="26.052"/></svg><svg x="1060"><use xlink:href="#a"/><text y="1.67" class="f"></text><path class="g" d="M1.002 0h1v2.171h-1z"/><text x="1.002" y="1.67" class="h"/><path class="g" d="M2.004 0h1v2.171h-1z"/><text x="2.004" y="1.67" class="i">~</text><path class="g" d="M3.006 0h1v2.171h-1z"/><text x="3.006" y="1.67" class="h"/><text x="4.008" y="1.67" class="f"></text><text x="6.012" y="1.67" class="j">kill</text><text x="11.022" y="1.67" class="k">-HUP</text><text x="16.032" y="1.67" class="o">53</text><use xlink:href="#5" y="2.171"/><use xlink:href="#6" y="4.342"/><use xlink:href="#7" y="6.513"/><use xlink:href="#8" y="8.684"/><use xlink:href="#9" y="10.855"/><use xlink:href="#10" y="13.026"/><use xlink:href="#11" y="15.197"/><use xlink:href="#12" y="17.368"/><use xlink:href="#13" y="19.539"/><use xlink:href="#14" y="21.71"/><use xlink:href="#15" y="23.881"/><use xlink:href="#16" y="26.052"/></svg><svg x="1113"><use xlink:href="#a"/><text y="1.67" class="f"></text><path class="g" d="M1.002 0h1v2.171h-1z"/><text x="1.002" y="1.67" class="h"/><path class="g" d="M2.004 0h1v2.171h-1z"/><text x="2.004" y="1.67" class="i">~</text><path class="g" d="M3.006 0h1v2.171h-1z"/><text x="3.006" y="1.67" class="h"/><text x="4.008" y="1.67" class="f"></text><text x="6.012" y="1.67" class="j">kill</text><text x="11.022" y="1.67" class="k">-HUP</text><text x="16.032" y="1.67" class="o">530</text><use xlink:href="#5" y="2.171"/><use xlink:href="#6" y="4.342"/><use xlink:href="#7" y="6.513"/><use xlink:href="#8" y="8.684"/><use xlink:href="#9" y="10.855"/><use xlink:href="#10" y="13.026"/><use xlink:href="#11" y="15.197"/><use xlink:href="#12" y="17.368"/><use xlink:href="#13" y="19.539"/><use xlink:href="#14" y="21.71"/><use xlink:href="#15" y="23.881"/><use xlink:href="#16" y="26.052"/></svg><svg x="1166"><use xlink:href="#a"/><use xlink:href="#18"/><use xlink:href="#5" y="2.171"/><use xlink:href="#6" y="4.342"/><use xlink:href="#7" y="6.513"/><use xlink:href="#8" y="8.684"/><use xlink:href="#9" y="10.855"/><use xlink:href="#10" y="13.026"/><use xlink:href="#11" y="15.197"/><use xlink:href="#12" y="17.368"/><use xlink:href="#13" y="19.539"/><use xlink:href="#14" y="21.71"/><use xlink:href="#15" y="23.881"/><use xlink:href="#16" y="26.052"/></svg><svg x="1219"><use xlink:href="#a"/><use xlink:href="#18"/><use xlink:href="#19" y="2.171"/><use xlink:href="#20" y="4.342"/><use xlink:href="#21" y="6.513"/><use xlink:href="#22" y="8.684"/></svg><svg x="1272"><use xlink:href="#a"/><text y="1.67" class="f"></text><path class="g" d="M1.002 0h1v2.171h-1z"/><text x="1.002" y="1.67" class="h"/><path class="g" d="M2.004 0h1v2.171h-1z"/><text x="2.004" y="1.67" class="i">~</text><path class="g" d="M3.006 0h1v2.171h-1z"/><text x="3.006" y="1.67" class="h"/><text x="4.008" y="1.67" class="f"></text><text x="6.012" y="1.67" class="j">kill</text><text x="11.022" y="1.67" class="k">-HUP</text><text x="16.032" y="1.67" class="o">5302</text><use xlink:href="#19" y="2.171"/><use xlink:href="#20" y="4.342"/><use xlink:href="#21" y="6.513"/><use xlink:href="#22" y="8.684"/></svg><svg x="1325"><use xlink:href="#a"/><use xlink:href="#23"/><use xlink:href="#19" y="2.171"/><use xlink:href="#20" y="4.342"/><use xlink:href="#21" y="6.513"/><use xlink:href="#22" y="8.684"/></svg><svg x="1378"><use xlink:href="#a"/><use xlink:href="#23"/><use xlink:href="#19" y="2.171"/><use xlink:href="#20" y="4.342"/><use xlink:href="#21" y="6.513"/><use xlink:href="#22" y="8.684"/></svg><svg x="1431"><use xlink:href="#a"/><use xlink:href="#24"/></svg><svg x="1484"><use xlink:href="#a"/><use xlink:href="#24"/></svg><svg x="1537"><use xlink:href="#a"/><use xlink:href="#24"/></svg><svg x="1590"><use xlink:href="#a"/><use xlink:href="#24"/><use xlink:href="#1" y="4.342"/></svg><svg x="1643"><use xlink:href="#a"/><use xlink:href="#24"/><use xlink:href="#1" y="4.342"/></svg><svg x="1696"><use xlink:href="#a"/><use xlink:href="#24"/><use xlink:href="#1" y="4.342"/></svg></svg></g></g></svg></svg>