<svg xmlns="http://www.w3.org/2000/svg" xmlns:xlink="http://www.w3.org/1999/xlink" width="570" height="363.94"><rect width="570" height="363.94" rx="5" ry="5" class="a"/><svg y="0%" x="0%"><circle cx="20" cy="20" r="6" fill="#ff5f58"/><circle cx="40" cy="20" r="6" fill="#ffbd2e"/><circle cx="60" cy="20" r="6" fill="#18c132"/></svg><svg height="303.94" viewBox="0 0 53 30.394" width="530" x="15" xmlns="http://www.w3.org/2000/svg" xmlns:xlink="http://www.w3.org/1999/xlink" y="50"><style>@keyframes o{0%{transform:translateX(0)}.1%{transform:translateX(-53px)}1.4%{transform:translateX(-318px)}1.6%{transform:translateX(-371px)}5.8%{transform:translateX(-424px)}7.6%{transform:translateX(-477px)}10.6%{transform:translateX(-530px)}13%{transform:translateX(-583px)}14.5%{transform:translateX(-636px)}14.9%{transform:translateX(-689px)}17.1%{transform:translateX(-742px)}17.2%{transform:translateX(-795px)}19.2%{transform:translateX(-848px)}22%{transform:translateX(-901px)}23.3%{transform:translateX(-954px)}26.8%{transform:translateX(-1007px)}30.6%{transform:translateX(-1060px)}33.3%{transform:translateX(-1113px)}37.1%{transform:translateX(-1166px)}39.7%{transform:translateX(-1219px)}42.2%{transform:translateX(-1272px)}47.8%{transform:translateX(-1325px)}52%{transform:translateX(-1378px)}54%{transform:translateX(-1431px)}55.7%{transform:translateX(-1484px)}58.8%{transform:translateX(-1537px)}73.7%{transform:translateX(-1590px)}96.1%{transform:translateX(-1749px)}96.4%{transform:translateX(-1908px)}to{transform:translateX(-1961px)}}.a{fill:#282d35}.f{white-space:pre}.f,.g{fill:#303030}.h,.i{fill:#0087af;white-space:pre}.i{fill:#00afff;font-weight:700}.j,.k,.l,.q{fill:#50fa7b;white-space:pre}.k,.l,.q{fill:#f8f8f2}.l,.q{fill:#ffb86c}.q{fill:#f55}</style><g font-family="Monaco,Consolas,Menlo,'Bitstream Vera Sans Mono','Powerline Symbols',monospace" font-size="1.67"><defs><symbol id="1"><text y="1.67" class="f"></text><path class="g" d="M1.002 0h1v2.171h-1z"/><text x="1.002" y="1.67" class="h"/><path class="g" d="M2.004 0h1v2.171h-1z"/><text x="2.004" y="1.67" class="i">~</text><path class="g" d="M3.006 0h1v2.171h-1z"/><text x="3.006" y="1.67" class="h"/><text x="4.008" y="1.67" class="f"></text></symbol><symbol id="2"><text y="1.67" class="f"></text><path class="g" d="M1.002 0h1v2.171h-1z"/><text x="1.002" y="1.67" class="h"/><path class="g" d="M2.004 0h1v2.171h-1z"/><text x="2.004" y="1.67" class="i">~</text><path class="g" d="M3.006 0h1v2.171h-1z"/><text x="3.006" y="1.67" class="h"/><text x="4.008" y="1.67" class="f"></text><text x="6.012" y="1.67" class="j">apt</text></symbol><symbol id="3"><text y="1.67" class="f"></text><path class="g" d="M1.002 0h1v2.171h-1z"/><text x="1.002" y="1.67" class="h"/><path class="g" d="M2.004 0h1v2.171h-1z"/><text x="2.004" y="1.67" class="i">~</text><path class="g" d="M3.006 0h1v2.171h-1z"/><text x="3.006" y="1.67" class="h"/><text x="4.008" y="1.67" class="f"></text><text x="6.012" y="1.67" class="j">apt</text><text x="10.02" y="1.67" class="k">install</text></symbol><symbol id="4"><text y="1.67" class="f"></text><path class="g" d="M1.002 0h1v2.171h-1z"/><text x="1.002" y="1.67" class="h"/><path class="g" d="M2.004 0h1v2.171h-1z"/><text x="2.004" y="1.67" class="i">~</text><path class="g" d="M3.006 0h1v2.171h-1z"/><text x="3.006" y="1.67" class="h"/><text x="4.008" y="1.67" class="f"></text><text x="6.012" y="1.67" class="j">apt</text><text x="10.02" y="1.67" class="k">install</text><text x="18.036" y="1.67" class="l">-y</text></symbol><symbol id="5"><text y="1.67" class="f"></text><path class="g" d="M1.002 0h1v2.171h-1z"/><text x="1.002" y="1.67" class="h"/><path class="g" d="M2.004 0h1v2.171h-1z"/><text x="2.004" y="1.67" class="i">~</text><path class="g" d="M3.006 0h1v2.171h-1z"/><text x="3.006" y="1.67" class="h"/><text x="4.008" y="1.67" class="f"></text><text x="6.012" y="1.67" class="j">apt</text><text x="10.02" y="1.67" class="k">install</text><text x="18.036" y="1.67" class="l">-y</text><text x="21.042" y="1.67" class="l">--</text></symbol><symbol id="6"><text y="1.67" class="f"></text><path class="g" d="M1.002 0h1v2.171h-1z"/><text x="1.002" y="1.67" class="h"/><path class="g" d="M2.004 0h1v2.171h-1z"/><text x="2.004" y="1.67" class="i">~</text><path class="g" d="M3.006 0h1v2.171h-1z"/><text x="3.006" y="1.67" class="h"/><text x="4.008" y="1.67" class="f"></text><text x="6.012" y="1.67" class="j">apt</text><text x="10.02" y="1.67" class="k">install</text><text x="18.036" y="1.67" class="l">-y</text><text x="21.042" y="1.67" class="l">--</text><text x="24.048" y="1.67" class="k">nmap</text></symbol><symbol id="7"><text y="1.67" style="white-space:pre" fill="#5fd700">❯</text><text x="2.004" y="1.67" class="j">sudo</text><text x="7.014" y="1.67" class="j">apt</text><text x="11.022" y="1.67" class="k">install</text><text x="19.038" y="1.67" class="l">-y</text><text x="22.044" y="1.67" class="l">--</text><text x="25.05" y="1.67" class="k">nmap</text></symbol><symbol id="a"><path fill="transparent" d="M0 0h53v14H0z"/></symbol></defs><path class="a" d="M0 0h53v30.394H0z"/><g style="animation-duration:3.679168s;animation-iteration-count:infinite;animation-name:o;animation-timing-function:steps(1,end)"><svg width="2014"><svg><use xlink:href="#a"/></svg><svg x="53"><use xlink:href="#a"/><use xlink:href="#1"/></svg><svg x="106"><use xlink:href="#a"/></svg><svg x="159"><use xlink:href="#a"/><use xlink:href="#1"/></svg><svg x="212"><use xlink:href="#a"/><use xlink:href="#1"/></svg><svg x="265"><use xlink:href="#a"/><use xlink:href="#1"/></svg><svg x="318"><use xlink:href="#a"/><use xlink:href="#1"/></svg><svg x="371"><use xlink:href="#a"/><text y="1.67" class="f"></text><path class="g" d="M1.002 0h1v2.171h-1z"/><text x="1.002" y="1.67" class="h"/><path class="g" d="M2.004 0h1v2.171h-1z"/><text x="2.004" y="1.67" class="i">~</text><path class="g" d="M3.006 0h1v2.171h-1z"/><text x="3.006" y="1.67" class="h"/><text x="4.008" y="1.67" class="f"></text><text x="6.012" y="1.67" class="q">a</text></svg><svg x="424"><use xlink:href="#a"/><text y="1.67" class="f"></text><path class="g" d="M1.002 0h1v2.171h-1z"/><text x="1.002" y="1.67" class="h"/><path class="g" d="M2.004 0h1v2.171h-1z"/><text x="2.004" y="1.67" class="i">~</text><path class="g" d="M3.006 0h1v2.171h-1z"/><text x="3.006" y="1.67" class="h"/><text x="4.008" y="1.67" class="f"></text><text x="6.012" y="1.67" class="q">ap</text></svg><svg x="477"><use xlink:href="#a"/><use xlink:href="#2"/></svg><svg x="530"><use xlink:href="#a"/><use xlink:href="#2"/></svg><svg x="583"><use xlink:href="#a"/><text y="1.67" class="f"></text><path class="g" d="M1.002 0h1v2.171h-1z"/><text x="1.002" y="1.67" class="h"/><path class="g" d="M2.004 0h1v2.171h-1z"/><text x="2.004" y="1.67" class="i">~</text><path class="g" d="M3.006 0h1v2.171h-1z"/><text x="3.006" y="1.67" class="h"/><text x="4.008" y="1.67" class="f"></text><text x="6.012" y="1.67" class="j">apt</text><text x="10.02" y="1.67" class="k">i</text></svg><svg x="636"><use xlink:href="#a"/><text y="1.67" class="f"></text><path class="g" d="M1.002 0h1v2.171h-1z"/><text x="1.002" y="1.67" class="h"/><path class="g" d="M2.004 0h1v2.171h-1z"/><text x="2.004" y="1.67" class="i">~</text><path class="g" d="M3.006 0h1v2.171h-1z"/><text x="3.006" y="1.67" class="h"/><text x="4.008" y="1.67" class="f"></text><text x="6.012" y="1.67" class="j">apt</text><text x="10.02" y="1.67" class="k">in</text></svg><svg x="689"><use xlink:href="#a"/><text y="1.67" class="f"></text><path class="g" d="M1.002 0h1v2.171h-1z"/><text x="1.002" y="1.67" class="h"/><path class="g" d="M2.004 0h1v2.171h-1z"/><text x="2.004" y="1.67" class="i">~</text><path class="g" d="M3.006 0h1v2.171h-1z"/><text x="3.006" y="1.67" class="h"/><text x="4.008" y="1.67" class="f"></text><text x="6.012" y="1.67" class="j">apt</text><text x="10.02" y="1.67" class="k">ins</text></svg><svg x="742"><use xlink:href="#a"/><text y="1.67" class="f"></text><path class="g" d="M1.002 0h1v2.171h-1z"/><text x="1.002" y="1.67" class="h"/><path class="g" d="M2.004 0h1v2.171h-1z"/><text x="2.004" y="1.67" class="i">~</text><path class="g" d="M3.006 0h1v2.171h-1z"/><text x="3.006" y="1.67" class="h"/><text x="4.008" y="1.67" class="f"></text><text x="6.012" y="1.67" class="j">apt</text><text x="10.02" y="1.67" class="k">inst</text></svg><svg x="795"><use xlink:href="#a"/><text y="1.67" class="f"></text><path class="g" d="M1.002 0h1v2.171h-1z"/><text x="1.002" y="1.67" class="h"/><path class="g" d="M2.004 0h1v2.171h-1z"/><text x="2.004" y="1.67" class="i">~</text><path class="g" d="M3.006 0h1v2.171h-1z"/><text x="3.006" y="1.67" class="h"/><text x="4.008" y="1.67" class="f"></text><text x="6.012" y="1.67" class="j">apt</text><text x="10.02" y="1.67" class="k">insta</text></svg><svg x="848"><use xlink:href="#a"/><text y="1.67" class="f"></text><path class="g" d="M1.002 0h1v2.171h-1z"/><text x="1.002" y="1.67" class="h"/><path class="g" d="M2.004 0h1v2.171h-1z"/><text x="2.004" y="1.67" class="i">~</text><path class="g" d="M3.006 0h1v2.171h-1z"/><text x="3.006" y="1.67" class="h"/><text x="4.008" y="1.67" class="f"></text><text x="6.012" y="1.67" class="j">apt</text><text x="10.02" y="1.67" class="k">instal</text></svg><svg x="901"><use xlink:href="#a"/><use xlink:href="#3"/></svg><svg x="954"><use xlink:href="#a"/><use xlink:href="#3"/></svg><svg x="1007"><use xlink:href="#a"/><text y="1.67" class="f"></text><path class="g" d="M1.002 0h1v2.171h-1z"/><text x="1.002" y="1.67" class="h"/><path class="g" d="M2.004 0h1v2.171h-1z"/><text x="2.004" y="1.67" class="i">~</text><path class="g" d="M3.006 0h1v2.171h-1z"/><text x="3.006" y="1.67" class="h"/><text x="4.008" y="1.67" class="f"></text><text x="6.012" y="1.67" class="j">apt</text><text x="10.02" y="1.67" class="k">install</text><text x="18.036" y="1.67" class="l">-</text></svg><svg x="1060"><use xlink:href="#a"/><use xlink:href="#4"/></svg><svg x="1113"><use xlink:href="#a"/><use xlink:href="#4"/></svg><svg x="1166"><use xlink:href="#a"/><text y="1.67" class="f"></text><path class="g" d="M1.002 0h1v2.171h-1z"/><text x="1.002" y="1.67" class="h"/><path class="g" d="M2.004 0h1v2.171h-1z"/><text x="2.004" y="1.67" class="i">~</text><path class="g" d="M3.006 0h1v2.171h-1z"/><text x="3.006" y="1.67" class="h"/><text x="4.008" y="1.67" class="f"></text><text x="6.012" y="1.67" class="j">apt</text><text x="10.02" y="1.67" class="k">install</text><text x="18.036" y="1.67" class="l">-y</text><text x="21.042" y="1.67" class="l">-</text></svg><svg x="1219"><use xlink:href="#a"/><use xlink:href="#5"/></svg><svg x="1272"><use xlink:href="#a"/><use xlink:href="#5"/></svg><svg x="1325"><use xlink:href="#a"/><text y="1.67" class="f"></text><path class="g" d="M1.002 0h1v2.171h-1z"/><text x="1.002" y="1.67" class="h"/><path class="g" d="M2.004 0h1v2.171h-1z"/><text x="2.004" y="1.67" class="i">~</text><path class="g" d="M3.006 0h1v2.171h-1z"/><text x="3.006" y="1.67" class="h"/><text x="4.008" y="1.67" class="f"></text><text x="6.012" y="1.67" class="j">apt</text><text x="10.02" y="1.67" class="k">install</text><text x="18.036" y="1.67" class="l">-y</text><text x="21.042" y="1.67" class="l">--</text><text x="24.048" y="1.67" class="k">n</text></svg><svg x="1378"><use xlink:href="#a"/><text y="1.67" class="f"></text><path class="g" d="M1.002 0h1v2.171h-1z"/><text x="1.002" y="1.67" class="h"/><path class="g" d="M2.004 0h1v2.171h-1z"/><text x="2.004" y="1.67" class="i">~</text><path class="g" d="M3.006 0h1v2.171h-1z"/><text x="3.006" y="1.67" class="h"/><text x="4.008" y="1.67" class="f"></text><text x="6.012" y="1.67" class="j">apt</text><text x="10.02" y="1.67" class="k">install</text><text x="18.036" y="1.67" class="l">-y</text><text x="21.042" y="1.67" class="l">--</text><text x="24.048" y="1.67" class="k">nm</text></svg><svg x="1431"><use xlink:href="#a"/><text y="1.67" class="f"></text><path class="g" d="M1.002 0h1v2.171h-1z"/><text x="1.002" y="1.67" class="h"/><path class="g" d="M2.004 0h1v2.171h-1z"/><text x="2.004" y="1.67" class="i">~</text><path class="g" d="M3.006 0h1v2.171h-1z"/><text x="3.006" y="1.67" class="h"/><text x="4.008" y="1.67" class="f"></text><text x="6.012" y="1.67" class="j">apt</text><text x="10.02" y="1.67" class="k">install</text><text x="18.036" y="1.67" class="l">-y</text><text x="21.042" y="1.67" class="l">--</text><text x="24.048" y="1.67" class="k">nma</text></svg><svg x="1484"><use xlink:href="#a"/><use xlink:href="#6"/></svg><svg x="1537"><use xlink:href="#a"/><use xlink:href="#6"/></svg><svg x="1590"><use xlink:href="#a"/><text y="1.67" class="f"></text><path class="g" d="M1.002 0h1v2.171h-1z"/><text x="1.002" y="1.67" class="h"/><path class="g" d="M2.004 0h1v2.171h-1z"/><text x="2.004" y="1.67" class="i">~</text><path class="g" d="M3.006 0h1v2.171h-1z"/><text x="3.006" y="1.67" class="h"/><text x="4.008" y="1.67" class="f"></text><text x="6.012" y="1.67" class="j">sudo</text><text x="11.022" y="1.67" class="j">apt</text><text x="15.03" y="1.67" class="k">install</text><text x="23.046" y="1.67" class="l">-y</text><text x="26.052" y="1.67" class="l">--</text><text x="29.058" y="1.67" class="k">nmap</text></svg><svg x="1643"><use xlink:href="#a"/><use xlink:href="#7"/></svg><svg x="1696"><use xlink:href="#a"/><use xlink:href="#7"/></svg><svg x="1749"><use xlink:href="#a"/><use xlink:href="#7"/></svg><svg x="1802"><use xlink:href="#a"/><use xlink:href="#7"/><use xlink:href="#1" y="4.342"/></svg><svg x="1855"><use xlink:href="#a"/><use xlink:href="#7"/><use xlink:href="#1" y="4.342"/></svg><svg x="1908"><use xlink:href="#a"/><use xlink:href="#7"/><use xlink:href="#1" y="4.342"/></svg><svg x="1961"><use xlink:href="#a"/><use xlink:href="#7"/><use xlink:href="#1" y="4.342"/></svg></svg></g></g></svg></svg>