<svg xmlns="http://www.w3.org/2000/svg" xmlns:xlink="http://www.w3.org/1999/xlink" width="570" height="363.94"><rect width="570" height="363.94" rx="5" ry="5" class="a"/><svg y="0%" x="0%"><circle cx="20" cy="20" r="6" fill="#ff5f58"/><circle cx="40" cy="20" r="6" fill="#ffbd2e"/><circle cx="60" cy="20" r="6" fill="#18c132"/></svg><svg height="303.94" viewBox="0 0 53 30.394" width="530" x="15" xmlns="http://www.w3.org/2000/svg" xmlns:xlink="http://www.w3.org/1999/xlink" y="50"><style>@keyframes r{0%{transform:translateX(0)}.1%{transform:translateX(-53px)}.7%{transform:translateX(-265px)}4.3%{transform:translateX(-318px)}6.4%{transform:translateX(-371px)}7.9%{transform:translateX(-424px)}9.1%{transform:translateX(-477px)}9.8%{transform:translateX(-530px)}10.4%{transform:translateX(-583px)}11.1%{transform:translateX(-636px)}12.1%{transform:translateX(-689px)}13.1%{transform:translateX(-742px)}15.1%{transform:translateX(-795px)}16.4%{transform:translateX(-848px)}19.8%{transform:translateX(-901px)}21.2%{transform:translateX(-954px)}22.4%{transform:translateX(-1007px)}24.4%{transform:translateX(-1060px)}28.5%{transform:translateX(-1113px)}31.8%{transform:translateX(-1166px)}35.6%{transform:translateX(-1219px)}37.1%{transform:translateX(-1272px)}38.5%{transform:translateX(-1325px)}42.2%{transform:translateX(-1378px)}43.5%{transform:translateX(-1431px)}45.1%{transform:translateX(-1484px)}46.9%{transform:translateX(-1537px)}48.1%{transform:translateX(-1590px)}48.7%{transform:translateX(-1643px)}49.1%{transform:translateX(-1696px)}50.5%{transform:translateX(-1749px)}53.3%{transform:translateX(-1802px)}57.9%{transform:translateX(-1855px)}62.5%{transform:translateX(-1908px)}63.4%{transform:translateX(-1961px)}63.6%{transform:translateX(-2014px)}64.9%{transform:translateX(-2067px)}67.6%{transform:translateX(-2120px)}68.8%{transform:translateX(-2173px)}70%{transform:translateX(-2226px)}71.8%{transform:translateX(-2279px)}72.9%{transform:translateX(-2332px)}76.8%{transform:translateX(-2385px)}79.6%{transform:translateX(-2438px)}82.1%{transform:translateX(-2491px)}85.8%{transform:translateX(-2544px)}98.6%{transform:translateX(-2756px)}98.8%{transform:translateX(-2915px)}to{transform:translateX(-2968px)}}.a{fill:#282d35}.f{white-space:pre}.f,.g{fill:#303030}.h{fill:#0087af}.h,.i,.j{white-space:pre}.i{fill:#00afff;font-weight:700}.j{fill:#8be9fd}.k,.l,.m,.n,.o,.p{fill:#ffb86c;white-space:pre}.l,.m,.n,.o,.p{fill:#f8f8f2}.m,.n,.o,.p{fill:#ff79c6}.n,.o,.p{fill:#f55}.o,.p{fill:#5fd700}.p{fill:#f1fa8c}</style><g font-family="Monaco,Consolas,Menlo,'Bitstream Vera Sans Mono','Powerline Symbols',monospace" font-size="1.67"><defs><symbol id="1"><text y="1.67" class="f"></text><path class="g" d="M1.002 0h1v2.171h-1z"/><text x="1.002" y="1.67" class="h"/><path class="g" d="M2.004 0h1v2.171h-1z"/><text x="2.004" y="1.67" class="i">~</text><path class="g" d="M3.006 0h1v2.171h-1z"/><text x="3.006" y="1.67" class="h"/><text x="4.008" y="1.67" class="f"></text></symbol><symbol id="2"><text y="1.67" class="f"></text><path class="g" d="M1.002 0h1v2.171h-1z"/><text x="1.002" y="1.67" class="h"/><path class="g" d="M2.004 0h1v2.171h-1z"/><text x="2.004" y="1.67" class="i">~</text><path class="g" d="M3.006 0h1v2.171h-1z"/><text x="3.006" y="1.67" class="h"/><text x="4.008" y="1.67" class="f"></text><text x="6.012" y="1.67" class="j">declare</text></symbol><symbol id="3"><text y="1.67" class="f"></text><path class="g" d="M1.002 0h1v2.171h-1z"/><text x="1.002" y="1.67" class="h"/><path class="g" d="M2.004 0h1v2.171h-1z"/><text x="2.004" y="1.67" class="i">~</text><path class="g" d="M3.006 0h1v2.171h-1z"/><text x="3.006" y="1.67" class="h"/><text x="4.008" y="1.67" class="f"></text><text x="6.012" y="1.67" class="j">declare</text><text x="14.028" y="1.67" class="k">-p</text></symbol><symbol id="4"><text y="1.67" class="f"></text><path class="g" d="M1.002 0h1v2.171h-1z"/><text x="1.002" y="1.67" class="h"/><path class="g" d="M2.004 0h1v2.171h-1z"/><text x="2.004" y="1.67" class="i">~</text><path class="g" d="M3.006 0h1v2.171h-1z"/><text x="3.006" y="1.67" class="h"/><text x="4.008" y="1.67" class="f"></text><text x="6.012" y="1.67" class="j">declare</text><text x="14.028" y="1.67" class="k">-p</text><text x="17.034" y="1.67" class="k">--</text></symbol><symbol id="5"><text y="1.67" class="f"></text><path class="g" d="M1.002 0h1v2.171h-1z"/><text x="1.002" y="1.67" class="h"/><path class="g" d="M2.004 0h1v2.171h-1z"/><text x="2.004" y="1.67" class="i">~</text><path class="g" d="M3.006 0h1v2.171h-1z"/><text x="3.006" y="1.67" class="h"/><text x="4.008" y="1.67" class="f"></text><text x="6.012" y="1.67" class="j">declare</text><text x="14.028" y="1.67" class="k">-p</text><text x="17.034" y="1.67" class="k">--</text><text x="20.04" y="1.67" class="l">SHELL</text></symbol><symbol id="6"><text y="1.67" class="f"></text><path class="g" d="M1.002 0h1v2.171h-1z"/><text x="1.002" y="1.67" class="h"/><path class="g" d="M2.004 0h1v2.171h-1z"/><text x="2.004" y="1.67" class="i">~</text><path class="g" d="M3.006 0h1v2.171h-1z"/><text x="3.006" y="1.67" class="h"/><text x="4.008" y="1.67" class="f"></text><text x="6.012" y="1.67" class="j">declare</text><text x="14.028" y="1.67" class="k">-p</text><text x="17.034" y="1.67" class="k">--</text><text x="20.04" y="1.67" class="l">SHELL</text><text x="26.052" y="1.67" class="m">&amp;&amp;</text></symbol><symbol id="7"><text y="1.67" class="f"></text><path class="g" d="M1.002 0h1v2.171h-1z"/><text x="1.002" y="1.67" class="h"/><path class="g" d="M2.004 0h1v2.171h-1z"/><text x="2.004" y="1.67" class="i">~</text><path class="g" d="M3.006 0h1v2.171h-1z"/><text x="3.006" y="1.67" class="h"/><text x="4.008" y="1.67" class="f"></text><text x="6.012" y="1.67" class="j">declare</text><text x="14.028" y="1.67" class="k">-p</text><text x="17.034" y="1.67" class="k">--</text><text x="20.04" y="1.67" class="l">SHELL</text><text x="26.052" y="1.67" class="m">&amp;&amp;</text><text x="29.058" y="1.67" class="j">echo</text></symbol><symbol id="8"><text y="1.67" class="f"></text><path class="g" d="M1.002 0h1v2.171h-1z"/><text x="1.002" y="1.67" class="h"/><path class="g" d="M2.004 0h1v2.171h-1z"/><text x="2.004" y="1.67" class="i">~</text><path class="g" d="M3.006 0h1v2.171h-1z"/><text x="3.006" y="1.67" class="h"/><text x="4.008" y="1.67" class="f"></text><text x="6.012" y="1.67" class="j">declare</text><text x="14.028" y="1.67" class="k">-p</text><text x="17.034" y="1.67" class="k">--</text><text x="20.04" y="1.67" class="l">SHELL</text><text x="26.052" y="1.67" class="m">&amp;&amp;</text><text x="29.058" y="1.67" class="j">echo</text><text x="34.068" y="1.67" class="n">"This</text></symbol><symbol id="9"><text y="1.67" class="f"></text><path class="g" d="M1.002 0h1v2.171h-1z"/><text x="1.002" y="1.67" class="h"/><path class="g" d="M2.004 0h1v2.171h-1z"/><text x="2.004" y="1.67" class="i">~</text><path class="g" d="M3.006 0h1v2.171h-1z"/><text x="3.006" y="1.67" class="h"/><text x="4.008" y="1.67" class="f"></text><text x="6.012" y="1.67" class="j">declare</text><text x="14.028" y="1.67" class="k">-p</text><text x="17.034" y="1.67" class="k">--</text><text x="20.04" y="1.67" class="l">SHELL</text><text x="26.052" y="1.67" class="m">&amp;&amp;</text><text x="29.058" y="1.67" class="j">echo</text><text x="34.068" y="1.67" class="n">"This</text><text x="40.08" y="1.67" class="n">is</text></symbol><symbol id="10"><text y="1.67" class="f"></text><path class="g" d="M1.002 0h1v2.171h-1z"/><text x="1.002" y="1.67" class="h"/><path class="g" d="M2.004 0h1v2.171h-1z"/><text x="2.004" y="1.67" class="i">~</text><path class="g" d="M3.006 0h1v2.171h-1z"/><text x="3.006" y="1.67" class="h"/><text x="4.008" y="1.67" class="f"></text><text x="6.012" y="1.67" class="j">declare</text><text x="14.028" y="1.67" class="k">-p</text><text x="17.034" y="1.67" class="k">--</text><text x="20.04" y="1.67" class="l">SHELL</text><text x="26.052" y="1.67" class="m">&amp;&amp;</text><text x="29.058" y="1.67" class="j">echo</text><text x="34.068" y="1.67" class="n">"This</text><text x="40.08" y="1.67" class="n">is</text><text x="43.086" y="1.67" class="n">a</text></symbol><symbol id="11"><text y="1.67" class="o">❯</text><text x="2.004" y="1.67" class="j">declare</text><text x="10.02" y="1.67" class="k">-p</text><text x="13.026" y="1.67" class="k">--</text><text x="16.032" y="1.67" class="l">SHELL</text><text x="22.044" y="1.67" class="m">&amp;&amp;</text><text x="25.05" y="1.67" class="j">echo</text><text x="30.06" y="1.67" class="p">"This</text><text x="36.072" y="1.67" class="p">is</text><text x="39.078" y="1.67" class="p">a</text><text x="41.082" y="1.67" class="p">ZSH"</text></symbol><symbol id="a"><path fill="transparent" d="M0 0h53v14H0z"/></symbol></defs><path class="a" d="M0 0h53v30.394H0z"/><g style="animation-duration:7.125466s;animation-iteration-count:infinite;animation-name:r;animation-timing-function:steps(1,end)"><svg width="3021"><svg><use xlink:href="#a"/></svg><svg x="53"><use xlink:href="#a"/><use xlink:href="#1"/></svg><svg x="106"><use xlink:href="#a"/></svg><svg x="159"><use xlink:href="#a"/><use xlink:href="#1"/></svg><svg x="212"><use xlink:href="#a"/><use xlink:href="#1"/></svg><svg x="265"><use xlink:href="#a"/><use xlink:href="#1"/></svg><svg x="318"><use xlink:href="#a"/><text y="1.67" class="f"></text><path class="g" d="M1.002 0h1v2.171h-1z"/><text x="1.002" y="1.67" class="h"/><path class="g" d="M2.004 0h1v2.171h-1z"/><text x="2.004" y="1.67" class="i">~</text><path class="g" d="M3.006 0h1v2.171h-1z"/><text x="3.006" y="1.67" class="h"/><text x="4.008" y="1.67" class="f"></text><text x="6.012" y="1.67" class="n">d</text></svg><svg x="371"><use xlink:href="#a"/><text y="1.67" class="f"></text><path class="g" d="M1.002 0h1v2.171h-1z"/><text x="1.002" y="1.67" class="h"/><path class="g" d="M2.004 0h1v2.171h-1z"/><text x="2.004" y="1.67" class="i">~</text><path class="g" d="M3.006 0h1v2.171h-1z"/><text x="3.006" y="1.67" class="h"/><text x="4.008" y="1.67" class="f"></text><text x="6.012" y="1.67" class="n">de</text></svg><svg x="424"><use xlink:href="#a"/><text y="1.67" class="f"></text><path class="g" d="M1.002 0h1v2.171h-1z"/><text x="1.002" y="1.67" class="h"/><path class="g" d="M2.004 0h1v2.171h-1z"/><text x="2.004" y="1.67" class="i">~</text><path class="g" d="M3.006 0h1v2.171h-1z"/><text x="3.006" y="1.67" class="h"/><text x="4.008" y="1.67" class="f"></text><text x="6.012" y="1.67" class="n">dec</text></svg><svg x="477"><use xlink:href="#a"/><text y="1.67" class="f"></text><path class="g" d="M1.002 0h1v2.171h-1z"/><text x="1.002" y="1.67" class="h"/><path class="g" d="M2.004 0h1v2.171h-1z"/><text x="2.004" y="1.67" class="i">~</text><path class="g" d="M3.006 0h1v2.171h-1z"/><text x="3.006" y="1.67" class="h"/><text x="4.008" y="1.67" class="f"></text><text x="6.012" y="1.67" class="n">decl</text></svg><svg x="530"><use xlink:href="#a"/><text y="1.67" class="f"></text><path class="g" d="M1.002 0h1v2.171h-1z"/><text x="1.002" y="1.67" class="h"/><path class="g" d="M2.004 0h1v2.171h-1z"/><text x="2.004" y="1.67" class="i">~</text><path class="g" d="M3.006 0h1v2.171h-1z"/><text x="3.006" y="1.67" class="h"/><text x="4.008" y="1.67" class="f"></text><text x="6.012" y="1.67" class="n">decla</text></svg><svg x="583"><use xlink:href="#a"/><text y="1.67" class="f"></text><path class="g" d="M1.002 0h1v2.171h-1z"/><text x="1.002" y="1.67" class="h"/><path class="g" d="M2.004 0h1v2.171h-1z"/><text x="2.004" y="1.67" class="i">~</text><path class="g" d="M3.006 0h1v2.171h-1z"/><text x="3.006" y="1.67" class="h"/><text x="4.008" y="1.67" class="f"></text><text x="6.012" y="1.67" class="n">declar</text></svg><svg x="636"><use xlink:href="#a"/><use xlink:href="#2"/></svg><svg x="689"><use xlink:href="#a"/><use xlink:href="#2"/></svg><svg x="742"><use xlink:href="#a"/><text y="1.67" class="f"></text><path class="g" d="M1.002 0h1v2.171h-1z"/><text x="1.002" y="1.67" class="h"/><path class="g" d="M2.004 0h1v2.171h-1z"/><text x="2.004" y="1.67" class="i">~</text><path class="g" d="M3.006 0h1v2.171h-1z"/><text x="3.006" y="1.67" class="h"/><text x="4.008" y="1.67" class="f"></text><text x="6.012" y="1.67" class="j">declare</text><text x="14.028" y="1.67" class="k">-</text></svg><svg x="795"><use xlink:href="#a"/><use xlink:href="#3"/></svg><svg x="848"><use xlink:href="#a"/><use xlink:href="#3"/></svg><svg x="901"><use xlink:href="#a"/><text y="1.67" class="f"></text><path class="g" d="M1.002 0h1v2.171h-1z"/><text x="1.002" y="1.67" class="h"/><path class="g" d="M2.004 0h1v2.171h-1z"/><text x="2.004" y="1.67" class="i">~</text><path class="g" d="M3.006 0h1v2.171h-1z"/><text x="3.006" y="1.67" class="h"/><text x="4.008" y="1.67" class="f"></text><text x="6.012" y="1.67" class="j">declare</text><text x="14.028" y="1.67" class="k">-p</text><text x="17.034" y="1.67" class="k">-</text></svg><svg x="954"><use xlink:href="#a"/><use xlink:href="#4"/></svg><svg x="1007"><use xlink:href="#a"/><use xlink:href="#4"/></svg><svg x="1060"><use xlink:href="#a"/><text y="1.67" class="f"></text><path class="g" d="M1.002 0h1v2.171h-1z"/><text x="1.002" y="1.67" class="h"/><path class="g" d="M2.004 0h1v2.171h-1z"/><text x="2.004" y="1.67" class="i">~</text><path class="g" d="M3.006 0h1v2.171h-1z"/><text x="3.006" y="1.67" class="h"/><text x="4.008" y="1.67" class="f"></text><text x="6.012" y="1.67" class="j">declare</text><text x="14.028" y="1.67" class="k">-p</text><text x="17.034" y="1.67" class="k">--</text><text x="20.04" y="1.67" class="l">S</text></svg><svg x="1113"><use xlink:href="#a"/><text y="1.67" class="f"></text><path class="g" d="M1.002 0h1v2.171h-1z"/><text x="1.002" y="1.67" class="h"/><path class="g" d="M2.004 0h1v2.171h-1z"/><text x="2.004" y="1.67" class="i">~</text><path class="g" d="M3.006 0h1v2.171h-1z"/><text x="3.006" y="1.67" class="h"/><text x="4.008" y="1.67" class="f"></text><text x="6.012" y="1.67" class="j">declare</text><text x="14.028" y="1.67" class="k">-p</text><text x="17.034" y="1.67" class="k">--</text><text x="20.04" y="1.67" class="l">SH</text></svg><svg x="1166"><use xlink:href="#a"/><text y="1.67" class="f"></text><path class="g" d="M1.002 0h1v2.171h-1z"/><text x="1.002" y="1.67" class="h"/><path class="g" d="M2.004 0h1v2.171h-1z"/><text x="2.004" y="1.67" class="i">~</text><path class="g" d="M3.006 0h1v2.171h-1z"/><text x="3.006" y="1.67" class="h"/><text x="4.008" y="1.67" class="f"></text><text x="6.012" y="1.67" class="j">declare</text><text x="14.028" y="1.67" class="k">-p</text><text x="17.034" y="1.67" class="k">--</text><text x="20.04" y="1.67" class="l">SHE</text></svg><svg x="1219"><use xlink:href="#a"/><text y="1.67" class="f"></text><path class="g" d="M1.002 0h1v2.171h-1z"/><text x="1.002" y="1.67" class="h"/><path class="g" d="M2.004 0h1v2.171h-1z"/><text x="2.004" y="1.67" class="i">~</text><path class="g" d="M3.006 0h1v2.171h-1z"/><text x="3.006" y="1.67" class="h"/><text x="4.008" y="1.67" class="f"></text><text x="6.012" y="1.67" class="j">declare</text><text x="14.028" y="1.67" class="k">-p</text><text x="17.034" y="1.67" class="k">--</text><text x="20.04" y="1.67" class="l">SHEL</text></svg><svg x="1272"><use xlink:href="#a"/><use xlink:href="#5"/></svg><svg x="1325"><use xlink:href="#a"/><use xlink:href="#5"/></svg><svg x="1378"><use xlink:href="#a"/><text y="1.67" class="f"></text><path class="g" d="M1.002 0h1v2.171h-1z"/><text x="1.002" y="1.67" class="h"/><path class="g" d="M2.004 0h1v2.171h-1z"/><text x="2.004" y="1.67" class="i">~</text><path class="g" d="M3.006 0h1v2.171h-1z"/><text x="3.006" y="1.67" class="h"/><text x="4.008" y="1.67" class="f"></text><text x="6.012" y="1.67" class="j">declare</text><text x="14.028" y="1.67" class="k">-p</text><text x="17.034" y="1.67" class="k">--</text><text x="20.04" y="1.67" class="l">SHELL</text><text x="26.052" y="1.67" class="m">&amp;</text></svg><svg x="1431"><use xlink:href="#a"/><use xlink:href="#6"/></svg><svg x="1484"><use xlink:href="#a"/><use xlink:href="#6"/></svg><svg x="1537"><use xlink:href="#a"/><text y="1.67" class="f"></text><path class="g" d="M1.002 0h1v2.171h-1z"/><text x="1.002" y="1.67" class="h"/><path class="g" d="M2.004 0h1v2.171h-1z"/><text x="2.004" y="1.67" class="i">~</text><path class="g" d="M3.006 0h1v2.171h-1z"/><text x="3.006" y="1.67" class="h"/><text x="4.008" y="1.67" class="f"></text><text x="6.012" y="1.67" class="j">declare</text><text x="14.028" y="1.67" class="k">-p</text><text x="17.034" y="1.67" class="k">--</text><text x="20.04" y="1.67" class="l">SHELL</text><text x="26.052" y="1.67" class="m">&amp;&amp;</text><text x="29.058" y="1.67" class="n">e</text></svg><svg x="1590"><use xlink:href="#a"/><text y="1.67" class="f"></text><path class="g" d="M1.002 0h1v2.171h-1z"/><text x="1.002" y="1.67" class="h"/><path class="g" d="M2.004 0h1v2.171h-1z"/><text x="2.004" y="1.67" class="i">~</text><path class="g" d="M3.006 0h1v2.171h-1z"/><text x="3.006" y="1.67" class="h"/><text x="4.008" y="1.67" class="f"></text><text x="6.012" y="1.67" class="j">declare</text><text x="14.028" y="1.67" class="k">-p</text><text x="17.034" y="1.67" class="k">--</text><text x="20.04" y="1.67" class="l">SHELL</text><text x="26.052" y="1.67" class="m">&amp;&amp;</text><text x="29.058" y="1.67" class="n">ec</text></svg><svg x="1643"><use xlink:href="#a"/><text y="1.67" class="f"></text><path class="g" d="M1.002 0h1v2.171h-1z"/><text x="1.002" y="1.67" class="h"/><path class="g" d="M2.004 0h1v2.171h-1z"/><text x="2.004" y="1.67" class="i">~</text><path class="g" d="M3.006 0h1v2.171h-1z"/><text x="3.006" y="1.67" class="h"/><text x="4.008" y="1.67" class="f"></text><text x="6.012" y="1.67" class="j">declare</text><text x="14.028" y="1.67" class="k">-p</text><text x="17.034" y="1.67" class="k">--</text><text x="20.04" y="1.67" class="l">SHELL</text><text x="26.052" y="1.67" class="m">&amp;&amp;</text><text x="29.058" y="1.67" class="n">ech</text></svg><svg x="1696"><use xlink:href="#a"/><use xlink:href="#7"/></svg><svg x="1749"><use xlink:href="#a"/><use xlink:href="#7"/></svg><svg x="1802"><use xlink:href="#a"/><text y="1.67" class="f"></text><path class="g" d="M1.002 0h1v2.171h-1z"/><text x="1.002" y="1.67" class="h"/><path class="g" d="M2.004 0h1v2.171h-1z"/><text x="2.004" y="1.67" class="i">~</text><path class="g" d="M3.006 0h1v2.171h-1z"/><text x="3.006" y="1.67" class="h"/><text x="4.008" y="1.67" class="f"></text><text x="6.012" y="1.67" class="j">declare</text><text x="14.028" y="1.67" class="k">-p</text><text x="17.034" y="1.67" class="k">--</text><text x="20.04" y="1.67" class="l">SHELL</text><text x="26.052" y="1.67" class="m">&amp;&amp;</text><text x="29.058" y="1.67" class="j">echo</text><text x="34.068" y="1.67" class="n">"</text></svg><svg x="1855"><use xlink:href="#a"/><text y="1.67" class="f"></text><path class="g" d="M1.002 0h1v2.171h-1z"/><text x="1.002" y="1.67" class="h"/><path class="g" d="M2.004 0h1v2.171h-1z"/><text x="2.004" y="1.67" class="i">~</text><path class="g" d="M3.006 0h1v2.171h-1z"/><text x="3.006" y="1.67" class="h"/><text x="4.008" y="1.67" class="f"></text><text x="6.012" y="1.67" class="j">declare</text><text x="14.028" y="1.67" class="k">-p</text><text x="17.034" y="1.67" class="k">--</text><text x="20.04" y="1.67" class="l">SHELL</text><text x="26.052" y="1.67" class="m">&amp;&amp;</text><text x="29.058" y="1.67" class="j">echo</text><text x="34.068" y="1.67" class="n">"T</text></svg><svg x="1908"><use xlink:href="#a"/><text y="1.67" class="f"></text><path class="g" d="M1.002 0h1v2.171h-1z"/><text x="1.002" y="1.67" class="h"/><path class="g" d="M2.004 0h1v2.171h-1z"/><text x="2.004" y="1.67" class="i">~</text><path class="g" d="M3.006 0h1v2.171h-1z"/><text x="3.006" y="1.67" class="h"/><text x="4.008" y="1.67" class="f"></text><text x="6.012" y="1.67" class="j">declare</text><text x="14.028" y="1.67" class="k">-p</text><text x="17.034" y="1.67" class="k">--</text><text x="20.04" y="1.67" class="l">SHELL</text><text x="26.052" y="1.67" class="m">&amp;&amp;</text><text x="29.058" y="1.67" class="j">echo</text><text x="34.068" y="1.67" class="n">"Th</text></svg><svg x="1961"><use xlink:href="#a"/><text y="1.67" class="f"></text><path class="g" d="M1.002 0h1v2.171h-1z"/><text x="1.002" y="1.67" class="h"/><path class="g" d="M2.004 0h1v2.171h-1z"/><text x="2.004" y="1.67" class="i">~</text><path class="g" d="M3.006 0h1v2.171h-1z"/><text x="3.006" y="1.67" class="h"/><text x="4.008" y="1.67" class="f"></text><text x="6.012" y="1.67" class="j">declare</text><text x="14.028" y="1.67" class="k">-p</text><text x="17.034" y="1.67" class="k">--</text><text x="20.04" y="1.67" class="l">SHELL</text><text x="26.052" y="1.67" class="m">&amp;&amp;</text><text x="29.058" y="1.67" class="j">echo</text><text x="34.068" y="1.67" class="n">"Thi</text></svg><svg x="2014"><use xlink:href="#a"/><use xlink:href="#8"/></svg><svg x="2067"><use xlink:href="#a"/><use xlink:href="#8"/></svg><svg x="2120"><use xlink:href="#a"/><text y="1.67" class="f"></text><path class="g" d="M1.002 0h1v2.171h-1z"/><text x="1.002" y="1.67" class="h"/><path class="g" d="M2.004 0h1v2.171h-1z"/><text x="2.004" y="1.67" class="i">~</text><path class="g" d="M3.006 0h1v2.171h-1z"/><text x="3.006" y="1.67" class="h"/><text x="4.008" y="1.67" class="f"></text><text x="6.012" y="1.67" class="j">declare</text><text x="14.028" y="1.67" class="k">-p</text><text x="17.034" y="1.67" class="k">--</text><text x="20.04" y="1.67" class="l">SHELL</text><text x="26.052" y="1.67" class="m">&amp;&amp;</text><text x="29.058" y="1.67" class="j">echo</text><text x="34.068" y="1.67" class="n">"This</text><text x="40.08" y="1.67" class="n">i</text></svg><svg x="2173"><use xlink:href="#a"/><use xlink:href="#9"/></svg><svg x="2226"><use xlink:href="#a"/><use xlink:href="#9"/></svg><svg x="2279"><use xlink:href="#a"/><use xlink:href="#10"/></svg><svg x="2332"><use xlink:href="#a"/><use xlink:href="#10"/></svg><svg x="2385"><use xlink:href="#a"/><text y="1.67" class="f"></text><path class="g" d="M1.002 0h1v2.171h-1z"/><text x="1.002" y="1.67" class="h"/><path class="g" d="M2.004 0h1v2.171h-1z"/><text x="2.004" y="1.67" class="i">~</text><path class="g" d="M3.006 0h1v2.171h-1z"/><text x="3.006" y="1.67" class="h"/><text x="4.008" y="1.67" class="f"></text><text x="6.012" y="1.67" class="j">declare</text><text x="14.028" y="1.67" class="k">-p</text><text x="17.034" y="1.67" class="k">--</text><text x="20.04" y="1.67" class="l">SHELL</text><text x="26.052" y="1.67" class="m">&amp;&amp;</text><text x="29.058" y="1.67" class="j">echo</text><text x="34.068" y="1.67" class="n">"This</text><text x="40.08" y="1.67" class="n">is</text><text x="43.086" y="1.67" class="n">a</text><text x="45.09" y="1.67" class="n">Z</text></svg><svg x="2438"><use xlink:href="#a"/><text y="1.67" class="f"></text><path class="g" d="M1.002 0h1v2.171h-1z"/><text x="1.002" y="1.67" class="h"/><path class="g" d="M2.004 0h1v2.171h-1z"/><text x="2.004" y="1.67" class="i">~</text><path class="g" d="M3.006 0h1v2.171h-1z"/><text x="3.006" y="1.67" class="h"/><text x="4.008" y="1.67" class="f"></text><text x="6.012" y="1.67" class="j">declare</text><text x="14.028" y="1.67" class="k">-p</text><text x="17.034" y="1.67" class="k">--</text><text x="20.04" y="1.67" class="l">SHELL</text><text x="26.052" y="1.67" class="m">&amp;&amp;</text><text x="29.058" y="1.67" class="j">echo</text><text x="34.068" y="1.67" class="n">"This</text><text x="40.08" y="1.67" class="n">is</text><text x="43.086" y="1.67" class="n">a</text><text x="45.09" y="1.67" class="n">ZS</text></svg><svg x="2491"><use xlink:href="#a"/><text y="1.67" class="f"></text><path class="g" d="M1.002 0h1v2.171h-1z"/><text x="1.002" y="1.67" class="h"/><path class="g" d="M2.004 0h1v2.171h-1z"/><text x="2.004" y="1.67" class="i">~</text><path class="g" d="M3.006 0h1v2.171h-1z"/><text x="3.006" y="1.67" class="h"/><text x="4.008" y="1.67" class="f"></text><text x="6.012" y="1.67" class="j">declare</text><text x="14.028" y="1.67" class="k">-p</text><text x="17.034" y="1.67" class="k">--</text><text x="20.04" y="1.67" class="l">SHELL</text><text x="26.052" y="1.67" class="m">&amp;&amp;</text><text x="29.058" y="1.67" class="j">echo</text><text x="34.068" y="1.67" class="n">"This</text><text x="40.08" y="1.67" class="n">is</text><text x="43.086" y="1.67" class="n">a</text><text x="45.09" y="1.67" class="n">ZSH</text></svg><svg x="2544"><use xlink:href="#a"/><text y="1.67" class="f"></text><path class="g" d="M1.002 0h1v2.171h-1z"/><text x="1.002" y="1.67" class="h"/><path class="g" d="M2.004 0h1v2.171h-1z"/><text x="2.004" y="1.67" class="i">~</text><path class="g" d="M3.006 0h1v2.171h-1z"/><text x="3.006" y="1.67" class="h"/><text x="4.008" y="1.67" class="f"></text><text x="6.012" y="1.67" class="j">declare</text><text x="14.028" y="1.67" class="k">-p</text><text x="17.034" y="1.67" class="k">--</text><text x="20.04" y="1.67" class="l">SHELL</text><text x="26.052" y="1.67" class="m">&amp;&amp;</text><text x="29.058" y="1.67" class="j">echo</text><text x="34.068" y="1.67" class="p">"This</text><text x="40.08" y="1.67" class="p">is</text><text x="43.086" y="1.67" class="p">a</text><text x="45.09" y="1.67" class="p">ZSH"</text></svg><svg x="2597"><use xlink:href="#a"/><text y="1.67" class="o">❯</text></svg><svg x="2650"><use xlink:href="#a"/><use xlink:href="#11"/></svg><svg x="2703"><use xlink:href="#a"/><use xlink:href="#11"/></svg><svg x="2756"><use xlink:href="#a"/><use xlink:href="#11"/></svg><svg x="2809"><use xlink:href="#a"/><use xlink:href="#11"/><use xlink:href="#1" y="4.342"/></svg><svg x="2862"><use xlink:href="#a"/><use xlink:href="#11"/><use xlink:href="#1" y="4.342"/></svg><svg x="2915"><use xlink:href="#a"/><use xlink:href="#11"/><use xlink:href="#1" y="4.342"/></svg><svg x="2968"><use xlink:href="#a"/><use xlink:href="#11"/><use xlink:href="#1" y="4.342"/></svg></svg></g></g></svg></svg>